<svg xmlns="http://www.w3.org/2000/svg" xmlns:xlink="http://www.w3.org/1999/xlink" viewBox="0 0 288.07 249.39"><defs><style>.baabc66d-81bd-417e-93bd-fbd5db26b77f{isolation:isolate;}.e810683c-e321-41c9-b633-69221a4036aa,.ee50c989-062e-4106-9e95-0998da6b5e8a{opacity:0.2;}.b5a389d3-d275-4b1e-a788-591691f33708{opacity:0;}.a2f548ad-f2a6-4f44-b282-f01653c42c45{opacity:0.09;}.bf180131-a3c5-444b-8cbd-cebb30ff5c80{opacity:0.18;}.bfa67300-847a-4b2d-9fea-2b31a0cf48ed{opacity:0.27;}.eac37318-5f25-4861-87c7-62a34120293f{opacity:0.36;}.b8031415-8053-482a-a6e5-0a5be64f1af2{opacity:0.45;}.f72fec74-4e70-407c-bda6-1913c7448503{opacity:0.55;}.a42bc6fc-e57a-4dd3-84ac-8fb712d61a70{opacity:0.64;}.bb1001a3-0b2b-4eb1-8b19-024849fb2695{opacity:0.73;}.fb62e16b-9290-4a4d-b817-47ddf8fa8da2{opacity:0.82;}.be2aa86d-5924-4579-bace-b802b2f2f0b8{opacity:0.91;}.be1ba4e3-17f9-4c1c-84c5-35bcefb48c8b{fill:url(#a143672d-e1e8-432e-92c1-21689bf8864e);}.ab7c27f8-20df-432f-b1e0-51bedce7136b{mix-blend-mode:screen;opacity:0.6;fill:url(#b8b27f69-3163-4f2d-a9f6-8031990bba34);}.e101e0b2-bd34-4036-a003-be50423a5433,.eb37dfcf-35a1-4a9c-8fe7-a2fa6d5246a3{fill:#fff;}.a1337270-a418-4377-ba9f-3b67f9ba567b{fill:url(#f6142a37-de32-4fd0-a5d8-afbf01c783d7);}.a3f5634b-c28d-49b0-9c04-7886ca4d48c3{fill:url(#bae8ad83-b2c8-4b34-afea-fd03fe6bf7d2);}.b61d633e-353d-4f9a-8164-8bd2c456a600{fill:url(#a9dda7c2-2f41-4646-8139-cb51e684a1af);}.ae6418a9-1395-4645-8051-03d4b2d7e03e,.b5988573-c800-4ad4-a996-bd4a375ae294{opacity:0.5;}.b5988573-c800-4ad4-a996-bd4a375ae294{fill:url(#a5d1ad82-ec40-40d9-93c3-c7e5eb3d5574);}.bd080ee9-4460-455d-a2c5-815775a2f9ba{fill:#bcbec0;}.bd080ee9-4460-455d-a2c5-815775a2f9ba,.e810683c-e321-41c9-b633-69221a4036aa,.ecbdec13-4412-4250-8b01-01583733f19d{mix-blend-mode:multiply;}.ecbdec13-4412-4250-8b01-01583733f19d{fill:#8969c3;}.a0b26613-803b-40f5-b1cb-e6c7405f8602{fill:url(#e3e6393e-2242-4b71-9e0d-91792e7565b2);}.a51be315-7b7f-4a21-a475-74802a0528f4{fill:url(#effd311d-3f84-4839-91c8-1d2af713068e);}.e810683c-e321-41c9-b633-69221a4036aa{fill:#231f20;}.bc22d1a3-4204-41d7-8825-aca9b75a8936{fill:url(#b85f4783-0cd3-4ece-94d9-19d92dc396e1);}.b570fb43-f1d2-4b97-b8b2-d9c440832d93{fill:#190333;}.eb37dfcf-35a1-4a9c-8fe7-a2fa6d5246a3{opacity:0.15;}.f31e77e8-31dd-4d4e-8bca-76072d6ebdbc{fill:url(#f3822803-84fd-441e-81bd-3038b98104c9);}.a86c83f0-41ee-4af0-a9e6-3193cef4d145{fill:url(#bb1f1a49-1524-4732-be63-d945f78827d6);}.a9a3dc40-4149-448e-a338-12f36cd00d9a{fill:url(#b308c348-5aeb-44cd-93ee-c9a5bbeafbb0);}.b05a90bc-bab9-4e96-b232-891040879173{fill:url(#f740f38f-9590-466e-8d1f-c59122af2546);}.a5a3ebda-58e9-48e7-90e0-3d4389556d01{fill:url(#b91d1734-3f37-48be-a65a-907cb4f26a58);}.badebeac-9b44-4273-85c8-217388229d04{fill:url(#f2c7d55b-e461-4ecc-b663-d17384b65138);}</style><linearGradient id="a143672d-e1e8-432e-92c1-21689bf8864e" x1="-704.08" y1="142.3" x2="-669.14" y2="202.82" gradientTransform="translate(933.61)" gradientUnits="userSpaceOnUse"><stop offset="0.06" stop-color="#9f79b8"/><stop offset="0.26" stop-color="#a17bba"/><stop offset="0.36" stop-color="#a783bf"/><stop offset="0.43" stop-color="#b290c9"/><stop offset="0.49" stop-color="#c1a1d5"/><stop offset="0.51" stop-color="#c4a5d7"/><stop offset="0.52" stop-color="#cdb3dd"/><stop offset="0.53" stop-color="#dbc8e7"/><stop offset="0.55" stop-color="#efe7f4"/><stop offset="0.56" stop-color="#fff"/><stop offset="0.57" stop-color="#ece0f3"/><stop offset="0.58" stop-color="#ddc8ea"/><stop offset="0.59" stop-color="#d4b9e5"/><stop offset="0.6" stop-color="#d1b4e3"/><stop offset="0.66" stop-color="#b395d6"/><stop offset="0.72" stop-color="#9c7dcb"/><stop offset="0.77" stop-color="#8e6ec5"/><stop offset="0.81" stop-color="#8969c3"/><stop offset="1" stop-color="#b086cc"/></linearGradient><radialGradient id="b8b27f69-3163-4f2d-a9f6-8031990bba34" cx="-658.89" cy="162.79" r="37.76" gradientTransform="translate(933.61)" gradientUnits="userSpaceOnUse"><stop offset="0" stop-color="#af8afc"/><stop offset="1" stop-color="#10054d"/></radialGradient><linearGradient id="f6142a37-de32-4fd0-a5d8-afbf01c783d7" x1="203.37" y1="218.78" x2="278.74" y2="178.59" gradientUnits="userSpaceOnUse"><stop offset="0" stop-color="#9f79c8"/><stop offset="0.14" stop-color="#a27dca"/><stop offset="0.27" stop-color="#ac88cf"/><stop offset="0.4" stop-color="#bc9bd7"/><stop offset="0.52" stop-color="#d1b4e3"/><stop offset="0.65" stop-color="#dbc4e9"/><stop offset="0.9" stop-color="#f4edf8"/><stop offset="1" stop-color="#fff"/></linearGradient><linearGradient id="bae8ad83-b2c8-4b34-afea-fd03fe6bf7d2" x1="-697.81" y1="187.93" x2="-659.84" y2="187.93" gradientTransform="translate(933.61)" gradientUnits="userSpaceOnUse"><stop offset="0" stop-color="#25054d"/><stop offset="1" stop-color="#45108a"/></linearGradient><linearGradient id="a9dda7c2-2f41-4646-8139-cb51e684a1af" x1="-698.47" y1="150.48" x2="-649.71" y2="243.44" gradientTransform="translate(933.61)" gradientUnits="userSpaceOnUse"><stop offset="0.01" stop-color="#9f19ab"/><stop offset="0.9" stop-color="#3d065f"/></linearGradient><linearGradient id="a5d1ad82-ec40-40d9-93c3-c7e5eb3d5574" x1="245.89" y1="142.19" x2="267.88" y2="184.13" gradientTransform="matrix(1, 0, 0, 1, 0, 0)" xlink:href="#bae8ad83-b2c8-4b34-afea-fd03fe6bf7d2"/><linearGradient id="e3e6393e-2242-4b71-9e0d-91792e7565b2" x1="207.1" y1="204.44" x2="310.18" y2="195.54" xlink:href="#f6142a37-de32-4fd0-a5d8-afbf01c783d7"/><linearGradient id="effd311d-3f84-4839-91c8-1d2af713068e" x1="4697.6" y1="199.62" x2="4683.88" y2="181.46" gradientTransform="matrix(-1, 0, 0, 1, 4952.48, 0)" gradientUnits="userSpaceOnUse"><stop offset="0" stop-color="#25054d"/><stop offset="0.21" stop-color="#2d085d"/><stop offset="0.62" stop-color="#430f87"/><stop offset="0.65" stop-color="#45108a"/></linearGradient><linearGradient id="b85f4783-0cd3-4ece-94d9-19d92dc396e1" x1="4664.37" y1="38.06" x2="4636.81" y2="-7.78" gradientTransform="matrix(-1.01, -0.02, 0.02, 1.03, 4871.86, 72.76)" gradientUnits="userSpaceOnUse"><stop offset="0.27" stop-color="#2b0758"/><stop offset="0.73" stop-color="#390c73"/><stop offset="0.85" stop-color="#45108a"/></linearGradient><linearGradient id="f3822803-84fd-441e-81bd-3038b98104c9" x1="244.68" y1="201.1" x2="155.48" y2="201.1" gradientUnits="userSpaceOnUse"><stop offset="0.18" stop-color="#838091"/><stop offset="0.27" stop-color="#888596"/><stop offset="0.37" stop-color="#9794a4"/><stop offset="0.48" stop-color="#b0adbb"/><stop offset="0.51" stop-color="#b7b4c2"/><stop offset="0.67" stop-color="#a7a4b2"/><stop offset="0.83" stop-color="#9b98a7"/></linearGradient><linearGradient id="bb1f1a49-1524-4732-be63-d945f78827d6" x1="206.36" y1="178.88" x2="190.57" y2="211.8" gradientUnits="userSpaceOnUse"><stop offset="0.04" stop-color="#9d9eb3"/><stop offset="0.58" stop-color="#d4d1d8"/><stop offset="1" stop-color="#eeebf2"/></linearGradient><linearGradient id="b308c348-5aeb-44cd-93ee-c9a5bbeafbb0" x1="175.57" y1="235.46" x2="172.59" y2="147.5" gradientTransform="matrix(1, 0, 0, 1, 0, 0)" xlink:href="#bae8ad83-b2c8-4b34-afea-fd03fe6bf7d2"/><linearGradient id="f740f38f-9590-466e-8d1f-c59122af2546" x1="140.31" y1="177.11" x2="135.11" y2="23.74" gradientTransform="matrix(0.64, -0.77, -0.77, -0.64, 110.79, 237.6)" xlink:href="#bae8ad83-b2c8-4b34-afea-fd03fe6bf7d2"/><linearGradient id="b91d1734-3f37-48be-a65a-907cb4f26a58" x1="267.21" y1="178.49" x2="4.75" y2="178.49" xlink:href="#f3822803-84fd-441e-81bd-3038b98104c9"/><linearGradient id="f2c7d55b-e461-4ecc-b663-d17384b65138" x1="141.4" y1="153.72" x2="117.16" y2="205.49" xlink:href="#bb1f1a49-1524-4732-be63-d945f78827d6"/></defs><g class="baabc66d-81bd-417e-93bd-fbd5db26b77f"><g id="aaa56b2e-b9e3-4f78-8b90-d68215516656" data-name="Layer 2"><g id="aa8ea507-f387-4b66-a4f2-a9e69ac44841" data-name="Layer 1"><g class="ee50c989-062e-4106-9e95-0998da6b5e8a"><path class="b5a389d3-d275-4b1e-a788-591691f33708" d="M273.27,244.89a11.15,11.15,0,0,1-5.57-1.35l-16.81-9.71-16.82-9.72a5.88,5.88,0,0,1-3.19-5.09c0-2.26,1.4-4.36,3.84-5.77l4.19-2.49a13.79,13.79,0,0,1,6.76-1.71,11.15,11.15,0,0,1,5.57,1.34l16.82,9.71,16.81,9.72a5.89,5.89,0,0,1,3.2,5.09c0,2.26-1.4,4.36-3.85,5.78L280,243.17A13.83,13.83,0,0,1,273.27,244.89Z"/><path class="a2f548ad-f2a6-4f44-b282-f01653c42c45" d="M234.87,213.5l.87-.49c.08,0,3.17-1.86,3.27-1.88a13.47,13.47,0,0,1,6.65-1.53c.31,0,.62,0,.92.06a11.47,11.47,0,0,1,4.5,1.36l16.52,9.54,16.5,9.54a6.61,6.61,0,0,1,3.09,3.7,5.63,5.63,0,0,1,.2,1.16c.12,2.18-1.19,4.27-3.63,5.67l-.86.5c-.08,0-3.18,1.86-3.27,1.88a13.47,13.47,0,0,1-6.65,1.53c-.32,0-.63,0-.93-.06a11.53,11.53,0,0,1-4.5-1.37L251,233.57,234.53,224a6.65,6.65,0,0,1-3.09-3.7,5.75,5.75,0,0,1-.2-1.16C231.12,217,232.44,214.91,234.87,213.5Z"/><path class="bf180131-a3c5-444b-8cbd-cebb30ff5c80" d="M235,213.76l.86-.47c.15-.09,3-1.76,3.22-1.8a13.19,13.19,0,0,1,6.55-1.34c.3,0,.6.06.9.09a12.75,12.75,0,0,1,4.38,1.42L267.14,221l16.19,9.35a7.36,7.36,0,0,1,3.13,3.54,6.77,6.77,0,0,1,.26,1.1c.24,2.1-1,4.17-3.41,5.57l-.86.47c-.16.09-3,1.76-3.23,1.8a13.13,13.13,0,0,1-6.54,1.34c-.31,0-.61-.06-.9-.09a12.61,12.61,0,0,1-4.38-1.42l-16.22-9.36L235,224a7.31,7.31,0,0,1-3.13-3.54,5.87,5.87,0,0,1-.26-1.1C231.37,217.23,232.59,215.16,235,213.76Z"/><path class="bfa67300-847a-4b2d-9fea-2b31a0cf48ed" d="M235.17,214l.85-.44c.23-.13,2.9-1.65,3.18-1.71a12.8,12.8,0,0,1,6.43-1.16c.3,0,.59.08.88.12a14.39,14.39,0,0,1,4.26,1.47l15.91,9.19,15.88,9.17a8.23,8.23,0,0,1,3.16,3.36,6.67,6.67,0,0,1,.32,1.05c.36,2-.78,4.08-3.19,5.47L282,241c-.23.14-2.91,1.66-3.19,1.72a12.88,12.88,0,0,1-6.43,1.15c-.3,0-.59-.08-.87-.11a14.35,14.35,0,0,1-4.27-1.47l-15.91-9.2-15.87-9.17a6.35,6.35,0,0,1-3.49-4.4C231.61,217.46,232.75,215.41,235.17,214Z"/><path class="eac37318-5f25-4861-87c7-62a34120293f" d="M235.31,214.27l.84-.42c.31-.17,2.78-1.55,3.15-1.63a12.51,12.51,0,0,1,6.32-1c.29,0,.57.11.85.14a16.8,16.8,0,0,1,4.14,1.53l15.62,9,15.56,9a9.56,9.56,0,0,1,3.2,3.19,8,8,0,0,1,.37,1c.49,1.94-.56,4-3,5.37l-.84.42c-.31.17-2.77,1.55-3.15,1.63a12.5,12.5,0,0,1-6.32,1c-.29,0-.57-.1-.85-.14a16.4,16.4,0,0,1-4.14-1.52l-15.61-9-15.56-9a9.56,9.56,0,0,1-3.2-3.19,10,10,0,0,1-.38-1C231.86,217.69,232.91,215.66,235.31,214.27Z"/><path class="b8031415-8053-482a-a6e5-0a5be64f1af2" d="M235.46,214.52l.83-.38a25,25,0,0,1,3.11-1.55,12,12,0,0,1,6.21-.78c.28,0,.55.12.82.16a19,19,0,0,1,4,1.59l15.31,8.84L281,231.21a11.1,11.1,0,0,1,3.24,3c.14.33.33.61.44.93.61,1.87-.36,3.89-2.76,5.27l-.83.39a28,28,0,0,1-3.1,1.55,12.36,12.36,0,0,1-6.21.78c-.29-.05-.56-.13-.83-.17a19.46,19.46,0,0,1-4-1.58l-15.32-8.85-15.24-8.81a11.23,11.23,0,0,1-3.24-3,9.64,9.64,0,0,1-.43-.93C232.1,217.93,233.07,215.91,235.46,214.52Z"/><path class="f72fec74-4e70-407c-bda6-1913c7448503" d="M235.61,214.78l.82-.36A21.67,21.67,0,0,1,239.5,213a11.78,11.78,0,0,1,6.09-.59c.28,0,.54.15.81.19a24,24,0,0,1,3.9,1.64l15,8.67,14.93,8.63c.74.42,3.11,2.14,3.28,2.85a3.78,3.78,0,0,1,.49.87c.74,1.79-.15,3.79-2.53,5.17l-.83.36a21.55,21.55,0,0,1-3.06,1.47,11.91,11.91,0,0,1-6.1.59c-.28-.05-.54-.15-.8-.19a24.13,24.13,0,0,1-3.91-1.64l-15-8.68-14.93-8.62c-.73-.43-3.11-2.14-3.27-2.85a4.24,4.24,0,0,1-.5-.87C232.33,218.16,233.23,216.15,235.61,214.78Z"/><path class="a42bc6fc-e57a-4dd3-84ac-8fb712d61a70" d="M235.76,215l.81-.33a17.59,17.59,0,0,1,3-1.38,11.39,11.39,0,0,1,6-.41c.27.06.52.17.78.22a28.9,28.9,0,0,1,3.78,1.7l14.72,8.49,14.61,8.45c.59.34,3.18,2.11,3.31,2.68a3.92,3.92,0,0,1,.56.81c.87,1.71.05,3.7-2.32,5.07l-.81.33a17.72,17.72,0,0,1-3,1.39,11.58,11.58,0,0,1-6,.4c-.27-.06-.52-.17-.77-.22a29.77,29.77,0,0,1-3.79-1.69L251.92,232l-14.61-8.44c-.59-.34-3.18-2.11-3.32-2.68a3.8,3.8,0,0,1-.55-.82C232.57,218.39,233.38,216.4,235.76,215Z"/><path class="bb1001a3-0b2b-4eb1-8b19-024849fb2695" d="M235.9,215.29l.81-.31a15.28,15.28,0,0,1,3-1.3,11.14,11.14,0,0,1,5.88-.22c.26.07.5.2.75.25.47.11,3.31,1.55,3.67,1.75l14.41,8.33,14.3,8.26c.44.25,3.25,2.08,3.35,2.51a3.52,3.52,0,0,1,.61.75c1,1.63.26,3.6-2.1,5l-.8.31a15.71,15.71,0,0,1-3,1.3,11.1,11.1,0,0,1-5.87.21c-.27-.07-.5-.19-.76-.24-.46-.11-3.31-1.55-3.66-1.75l-14.41-8.33-14.3-8.26c-.44-.25-3.25-2.08-3.35-2.51a3.52,3.52,0,0,1-.61-.75C232.8,218.63,233.54,216.65,235.9,215.29Z"/><path class="fb62e16b-9290-4a4d-b817-47ddf8fa8da2" d="M236.05,215.55l.8-.29a12.54,12.54,0,0,1,2.94-1.21,10.67,10.67,0,0,1,5.77,0,5.62,5.62,0,0,1,.72.27,38.07,38.07,0,0,1,3.55,1.8l14.11,8.16,14,8.07a26.46,26.46,0,0,1,3.38,2.34,4,4,0,0,1,.67.7c1.15,1.55.48,3.51-1.88,4.87l-.79.28a12.74,12.74,0,0,1-2.94,1.22,10.87,10.87,0,0,1-5.77,0,5.8,5.8,0,0,1-.73-.28,37.89,37.89,0,0,1-3.54-1.8l-14.11-8.15-14-8.08a25.6,25.6,0,0,1-3.39-2.34,4,4,0,0,1-.67-.7C233,218.86,233.7,216.9,236.05,215.55Z"/><path class="be2aa86d-5924-4579-bace-b802b2f2f0b8" d="M236.2,215.8l.79-.25a10.7,10.7,0,0,1,2.9-1.14,10.35,10.35,0,0,1,5.65.16,6.58,6.58,0,0,1,.71.3c.16,0,3.31,1.79,3.42,1.86l13.81,8,13.67,7.89c.15.09,3.39,2,3.43,2.17a4.23,4.23,0,0,1,.73.64c1.28,1.46.68,3.41-1.66,4.77l-.79.25a10.82,10.82,0,0,1-2.9,1.14,10.38,10.38,0,0,1-5.66-.16,7.37,7.37,0,0,1-.7-.3c-.16,0-3.31-1.79-3.43-1.86l-13.81-8-13.67-7.9c-.15-.08-3.39-2-3.42-2.16a3.88,3.88,0,0,1-.73-.65C233.26,219.1,233.86,217.15,236.2,215.8Z"/><path d="M269.33,240.73,252.51,231l-16.82-9.72c-2.32-1.34-2-3.69.66-5.24l.77-.23c2.69-1.55,6.76-1.72,9.09-.38L263,225.17l16.81,9.71c2.33,1.35,2,3.69-.65,5.25l-.78.22C275.72,241.91,271.66,242.08,269.33,240.73Z"/></g><path class="be1ba4e3-17f9-4c1c-84c5-35bcefb48c8b" d="M272.74,239.73l-31.08-18.06c-2.84-1.65-5.15-6.06-5.15-9.85V144.61c0-1.94-1.59-2.36-.63-3.06l2.3-1a3.69,3.69,0,0,1,3.48.2l31.08,18.06c2.84,1.65,5.15,6.06,5.15,9.85v67.22c0,2-.65,3.45-1.69,4.11-.06,0-2.73,1.31-2.8,1.33C272.48,241.59,274,240.45,272.74,239.73Z"/><path class="ab7c27f8-20df-432f-b1e0-51bedce7136b" d="M270.78,240.63,239.7,222.56c-2.84-1.64-5.15-6.05-5.15-9.85V145.5c0-3.79,2.31-5.54,5.15-3.9l31.08,18.07c2.84,1.64,5.15,6.05,5.15,9.85v67.21C275.93,240.53,273.62,242.27,270.78,240.63Z"/><path class="e101e0b2-bd34-4036-a003-be50423a5433" d="M270.33,240.87l-31.08-18.06c-2.84-1.65-5.15-6.06-5.15-9.85V145.74c0-3.79,2.31-5.54,5.15-3.89l31.08,18.06c2.84,1.65,5.15,6.06,5.15,9.85V237C275.48,240.77,273.17,242.52,270.33,240.87Z"/><path class="a1337270-a418-4377-ba9f-3b67f9ba567b" d="M234.8,213.4V146.11c0-3.33,2-4.86,4.52-3.42l30.94,18c2.5,1.44,4.52,5.31,4.52,8.64v67.29c0,3.33-2,4.86-4.52,3.42l-30.94-18C236.83,220.6,234.8,216.73,234.8,213.4Z"/><path class="a3f5634b-c28d-49b0-9c04-7886ca4d48c3" d="M235.81,207v-60.1c0-2.79,1.69-4.07,3.78-2.86L270,161.68c2.09,1.21,3.78,4.44,3.78,7.23V229c0,2.78-1.69,4.06-3.78,2.86l-30.4-17.68C237.5,213,235.81,209.75,235.81,207Z"/><path class="b61d633e-353d-4f9a-8164-8bd2c456a600" d="M239.87,144.74c-2-1.14-3.56-.23-3.56,2v60.86a7.85,7.85,0,0,0,3.56,6.15l29.84,17.35c2,1.13,3.56.22,3.56-2V168.24a7.85,7.85,0,0,0-3.56-6.15Z"/><path class="b5988573-c800-4ad4-a996-bd4a375ae294" d="M269.71,162.09l-29.84-17.35c-2-1.14-3.56-.23-3.56,2v4.84l37,21.49v-4.86A7.85,7.85,0,0,0,269.71,162.09Z"/><path class="bd080ee9-4460-455d-a2c5-815775a2f9ba" d="M269.71,162.09l-29.84-17.35c-2-1.14-3.56-.23-3.56,2v60.86a7.85,7.85,0,0,0,3.56,6.15l29.84,17.35c2,1.13,3.56.22,3.56-2V168.24A7.85,7.85,0,0,0,269.71,162.09Zm3.25,67a2.65,2.65,0,0,1-.47,1.67,1.47,1.47,0,0,1-1.18.55h0a3,3,0,0,1-1.45-.45L240,213.51a7.54,7.54,0,0,1-3.41-5.88V146.77c0-1.36.63-2.21,1.65-2.21a3,3,0,0,1,1.45.45l29.83,17.35a7.53,7.53,0,0,1,3.41,5.88Z"/><path class="ecbdec13-4412-4250-8b01-01583733f19d" d="M256.64,228.24c0,1.32-.94,1.85-2.09,1.19a4.61,4.61,0,0,1-2.08-3.6c0-1.32.93-1.86,2.08-1.19A4.6,4.6,0,0,1,256.64,228.24Z"/><path class="e101e0b2-bd34-4036-a003-be50423a5433" d="M253.62,224.35a1.82,1.82,0,0,1,.93.29,4.6,4.6,0,0,1,2.09,3.6c0,.93-.47,1.47-1.15,1.47a2,2,0,0,1-.94-.28,4.61,4.61,0,0,1-2.08-3.6c0-.94.46-1.48,1.15-1.48Zm0-.45c-1,0-1.61.77-1.61,1.93a5,5,0,0,0,2.31,4,2.38,2.38,0,0,0,1.17.35c1,0,1.61-.78,1.61-1.93a5,5,0,0,0-2.32-4,2.33,2.33,0,0,0-1.16-.34Z"/><polygon class="a0b26613-803b-40f5-b1cb-e6c7405f8602" points="267.02 193.28 242.27 178.85 242.27 207.39 267.02 221.82 267.02 193.28"/><polygon class="a51be315-7b7f-4a21-a475-74802a0528f4" points="265.43 194.55 243.56 181.79 243.56 205.72 265.43 218.48 265.43 194.55"/><polygon class="e810683c-e321-41c9-b633-69221a4036aa" points="62.34 137.87 239.97 35.37 213.05 19.83 35.42 122.33 62.34 137.87"/><path class="bc22d1a3-4204-41d7-8825-aca9b75a8936" d="M56.16,129.92,234,27.25c2.73-1.57,4.89-5.88,4.83-9.62h0c-.06-3.73-2.32-5.49-5-3.91L56,116.39c-2.73,1.57-4.89,5.88-4.83,9.62h0C51.17,129.74,53.43,131.5,56.16,129.92Z"/><path class="b570fb43-f1d2-4b97-b8b2-d9c440832d93" d="M51.43,126.66c0-3.28,2-7.24,4.47-8.63L235.27,14.46a3,3,0,0,1,1.47-.46c1.46,0,2,1.8,2,3.34,0,3.28-2.05,7.24-4.47,8.64L54.88,129.54a3.08,3.08,0,0,1-1.47.46C52,130,51.43,128.2,51.43,126.66Zm-.21-.47h0c0,3.63,2.21,5.31,4.94,3.73L234,27.25c2.73-1.57,4.94-5.8,4.94-9.43h0c0-3.64-2.21-5.31-4.94-3.74L56.16,116.75C53.43,118.33,51.22,122.55,51.22,126.19Z"/><line class="eb37dfcf-35a1-4a9c-8fe7-a2fa6d5246a3" x1="53.6" y1="119.45" x2="53.41" y2="119.63"/><line class="eb37dfcf-35a1-4a9c-8fe7-a2fa6d5246a3" x1="31.1" y1="106.87" x2="31.29" y2="106.61"/><polygon class="e810683c-e321-41c9-b633-69221a4036aa" points="137.09 214.11 0 136.31 25.92 121.34 163.01 199.15 137.09 214.11"/><polygon class="ae6418a9-1395-4645-8051-03d4b2d7e03e" points="112.69 181.87 134.17 169.58 134.43 169.99 112.95 182.36 112.69 181.87"/><polygon class="eb37dfcf-35a1-4a9c-8fe7-a2fa6d5246a3" points="112.69 181.87 134.17 169.58 133.99 169.33 112.51 181.7 112.69 181.87"/><polygon class="ae6418a9-1395-4645-8051-03d4b2d7e03e" points="114.55 186.54 136.03 174.25 136.11 174.75 114.63 187.12 114.55 186.54"/><polygon class="eb37dfcf-35a1-4a9c-8fe7-a2fa6d5246a3" points="114.55 186.54 136.03 174.25 135.97 173.95 114.49 186.32 114.55 186.54"/><path class="e810683c-e321-41c9-b633-69221a4036aa" d="M207.41,227.85l-44.3-25.62-.71-17.38L140.61,196.9l-.14,18.41,45.22,26.15c18.22,10.52,47.67,10.57,65.78.12l16.81-10.23.17-18.12-22.4-12.55-.56,17.51-15.89,9.7C223.49,231.42,213.56,231.4,207.41,227.85Z"/><path class="f31e77e8-31dd-4d4e-8bca-76072d6ebdbc" d="M205.69,217.17c6.14,3.55,16.08,3.57,22.19,0l15.89-9.69h0l0-6.44-15.89,9.7c-6.11,3.52-16,3.5-22.19,0l-49.06-28.4,0,6.45Z"/><path class="a86c83f0-41ee-4af0-a9e6-3193cef4d145" d="M205.69,209.31c6.14,3.55,16.08,3.57,22.19,0l14.57-8.94,1.32.68-15.89,9.7c-6.11,3.52-16,3.5-22.19,0l-49.06-28.4,1.21-.68Z"/><path class="a9a3dc40-4149-448e-a338-12f36cd00d9a" d="M211.2,214.52a34.26,34.26,0,0,1-6.66-2.37c-2.13-1.06-3.17-1.91-7.11-4.3-1.82-1.1-3.32-2-4.3-2.52-4.45-2.57-9.58-5.57-15.26-9-22.66-13.53-33.37-20.83-60-37.26-4-2.49-9.19-5.64-15.2-9.24l-21.16,12.3,102.38,63.92c18.23,10.52,47.68,10.57,65.78.11L266.49,216l-1.25-.77-.09-20.33-4.29-2.46-33.05,20.09C224.57,213.88,218.07,216.09,211.2,214.52Z"/><path class="b05a90bc-bab9-4e96-b232-891040879173" d="M53.41,119.63c-.06,2.25,3.55,3.81,9.13,6.74,5,2.65,9.7,6,14.78,8.56a256.52,256.52,0,0,1,25.35,14.94l-21.16,12.3L4.36,118.38c4.48-2.41,11.85-6.36,21-11.22,12.71-6.74,23.3-12.39,29.88-15.9l7.2-3.85C93.24,70.94,213.81.94,213.84.92A4.67,4.67,0,0,1,216,0a2.55,2.55,0,0,1,1.91,1L237.1,13.76a5.94,5.94,0,0,0-3.11.32c-.4.17-.46.25-2.45,1.4l-1.56.89-2.92,1.71c-3.31,1.94-9.45,5.49-13,7.55l-2.26,1.3c-5.24,3-9,5-9.78,5.44-6.74,3.69-35.2,20.44-45.1,26.23-17.3,10.11-15.24,8.48-24,13.85,0,0-37.2,22.19-44,25.41-.2.1,19.5-11.75,19.5-11.75h0l-4.67,2.82L87.73,98.52h0s-1.7,1-2.77,1.56c-1.59.88-1.94,1.41-4.06,2-.79.24,5.27-3.21,3.84-1.93-1.65,1.49-11.86,7-14.85,8.62-.91.5-6.76,3.85-7.57,4.37C56.08,117.24,53.42,119.08,53.41,119.63Z"/><path class="a5a3ebda-58e9-48e7-90e0-3d4389556d01" d="M266.56,214.44h0l-16.81,10.23c-18.11,10.45-47.56,10.4-65.78-.12l-50-28.93L4.36,118.38l-.27,6c10.43,5.89,19.17,11,25.78,15,12.22,7.29,22.07,13.44,27.11,16.6,9.74,6.09,10,6.37,18,11.29,10.85,6.68,19.66,11.84,21.85,13.12,9.29,5.44,9.73,5.5,17,9.83,9.44,5.6,11.08,6.89,18.75,11.53,11.09,6.72,11.85,6.55,28.44,16C180.77,229,180,229.38,186,231.85a80.48,80.48,0,0,0,30.27,6.73,76,76,0,0,0,33.44-7.4L266.56,221Z"/><path class="badebeac-9b44-4273-85c8-217388229d04" d="M266.56,214.44h0l-16.81,10.23c-18.11,10.45-47.56,10.4-65.78-.12l-50-28.93L4.36,118.38l1.27-.68L184,222.94c18.22,10.52,47.67,10.57,65.78.12Z"/></g></g></g></svg>