<svg xmlns="http://www.w3.org/2000/svg" xmlns:xlink="http://www.w3.org/1999/xlink" viewBox="0 0 57.12 67.08"><defs><style>.b7447842-5e70-4be2-9cf8-6e8919c40473{isolation:isolate;}.e249edd4-c0d2-4a47-bb9c-66bd77a2a3f7{fill:url(#bd2b2c9d-6bae-4648-8b42-091a152e2ef4);}.f8be4ad5-aa15-4a6b-bd18-70858c0ff42c{fill:url(#b223fcef-20fc-4470-aafa-3226471128b9);}.a4adc3b6-097a-45de-80ab-033dbb3e7297{fill:url(#f93dcd97-1621-4256-aefa-74722e07e76c);}.a3a5839a-6eb2-44c6-864c-9b1dad2603d9,.ae755ab7-7f91-4f08-8379-ced209ca27f4,.b30394e7-6077-41d9-aacf-808c4c8a48fc,.b82ac5d8-17ff-42d3-9529-1eff61e2f818,.e56b42c0-9494-4b56-8231-a0baa41a5ff4,.edae4082-6bd5-4dc7-831f-96c0daf3e5ab,.f922b8cc-f8bf-463b-aa7b-f89adb3703f5,.fdc13df2-454a-4a93-8ceb-1eba01746f80{mix-blend-mode:color-dodge;}.ae755ab7-7f91-4f08-8379-ced209ca27f4{fill:url(#fb779797-005f-42ff-a7e6-47daf5dd6203);}.e070211e-5fcf-4f45-9c70-0b6eac122abd{fill:url(#b937b5b1-a72c-4660-a0d9-05cb9e0db84e);}.f7f71947-c35e-4840-a661-ef42917c3a9a{fill:url(#ad82544c-2e3f-4395-b214-c2d79c6f05dd);}.bbe2e5fc-47cb-49a2-a532-5797a2b803fd{fill:url(#bb1d16da-d0b8-4fff-9e89-44b6b5d6a6f3);}.bc552150-9b8b-43be-86eb-d341b7e869a3{fill:url(#ac3d30f2-b576-4cf6-b96a-b133fb0f2955);}.f1dbc86e-1c72-47f0-852f-d3193f05e580{fill:url(#b75b21ab-904c-4409-9bea-aab29bd78743);}.b6b0333f-0179-44b1-b260-407cda552478{fill:url(#e9d0eb98-df5b-469c-bd7f-8f1bad5e39a8);}.bbc637db-c426-4c5e-9676-66249f42cf89{fill:url(#f4cf3910-6c4d-4b2f-859d-e4ca4dc6f272);}.f29235c9-2fe9-4c04-b8d8-16f157f48411{fill:#e6e7e8;mix-blend-mode:screen;}.b30394e7-6077-41d9-aacf-808c4c8a48fc{fill:url(#a08905df-36ec-45f9-a412-196da2167276);}.b61524ad-a031-454a-9003-12901249139b{fill:url(#a1aaac48-9127-48e0-a5cd-64948262cd1a);}.a3f1a54b-a867-4719-b5bf-7271b33baa58{fill:url(#ac40e8ef-6669-428e-b85c-3ec3fbab4abf);}.e507678e-ec7e-4008-a2ed-5184190ee9ae{fill:url(#ad048a14-02b6-4957-a930-d63a0c7fb99d);}.a276f416-bc03-47db-b3df-ea5a51d83360{fill:url(#a413355b-2a4b-4859-819b-328025b94c7e);}.edae4082-6bd5-4dc7-831f-96c0daf3e5ab{fill:url(#bb789adf-4114-4d93-a9ea-0d87f46bf866);}.b984b552-6f85-4620-9826-8e9b2b1b5db5{fill:url(#b95a13e5-018f-462e-9767-c165c26f8c72);}.be10a7bc-7954-493b-adf2-c7a0f027401c{fill:url(#a9fdc555-fb8f-499d-9cd9-28919b065c52);}.aa9e70e8-d9a8-43d0-8aa3-63fa13fd460d{fill:url(#a84618be-3f4c-4e20-8451-4d9cbaf19cec);}.b1854202-2f98-4a88-ae0a-cd5a5cc44024{fill:url(#a87055c4-4c5c-402f-9b87-97747e769663);}.e56b42c0-9494-4b56-8231-a0baa41a5ff4{fill:url(#ab6aaa58-a533-45e2-a7a6-a4af0f579531);}.fceedcac-67d7-4593-9ef0-7b7508febb34{fill:url(#aedeffe3-bff4-4c55-a909-2e0ce3f7c847);}.a17475dc-a79a-407a-84d5-ad065bd6a4f5{fill:url(#a57d2093-2602-434b-8dec-3cbeeefdaa0a);}.a3a5839a-6eb2-44c6-864c-9b1dad2603d9{fill:url(#a7c6fd40-e2e2-4910-be0b-9c57e39ed90f);}.fdc13df2-454a-4a93-8ceb-1eba01746f80{fill:url(#a3f41e3b-f1eb-4fef-a1ab-133fcba7aa9e);}.e01dc30a-4f85-4eee-9f10-3f2f403d0775{fill:url(#bfcdd45d-9f14-41af-85ea-991bccd87e83);}.b70181b3-d774-4313-9023-6fafced10c2d{fill:url(#ec421338-cb05-423a-8886-bb6e8656b0db);}.a6d4022c-070e-41ee-8a47-30deffcd9f78{fill:#fff;opacity:0.2;}.e25b519f-73a6-4983-966c-31411cfc129d{fill:url(#e15522cc-823e-46b8-a1fd-c35e694483fd);}.eedded3a-e3c8-41fd-8fc9-e94451c15301{fill:url(#a6c4646a-971a-4d2e-ada1-d1eefe5f559e);}.f0d3093f-ab7d-4753-b277-0e9822b42a4a{mix-blend-mode:multiply;fill:url(#a4767b48-a6ce-4545-ad07-6f9b55acf1f5);}.a582ff21-da2b-4dd0-b97d-5f4d3bf0476f{fill:url(#bccb20b1-3c4e-4b10-933f-38154278b240);}.f922b8cc-f8bf-463b-aa7b-f89adb3703f5{fill:url(#a1e51539-efa9-4e89-846f-70b6853c8970);}.b82ac5d8-17ff-42d3-9529-1eff61e2f818{fill:url(#be566df9-6e0b-49f9-a904-785ad64f0026);}</style><linearGradient id="bd2b2c9d-6bae-4648-8b42-091a152e2ef4" x1="3.99" y1="37.94" x2="50.31" y2="24.07" gradientUnits="userSpaceOnUse"><stop offset="0" stop-color="#9f79c8"/><stop offset="0.14" stop-color="#a580cb"/><stop offset="0.33" stop-color="#b492d3"/><stop offset="0.55" stop-color="#cdb0e1"/><stop offset="0.58" stop-color="#d1b4e3"/><stop offset="0.76" stop-color="#dbc4e9"/><stop offset="1" stop-color="#ebdef3"/></linearGradient><linearGradient id="b223fcef-20fc-4470-aafa-3226471128b9" x1="-21.63" y1="44.47" x2="25.24" y2="33.97" xlink:href="#bd2b2c9d-6bae-4648-8b42-091a152e2ef4"/><linearGradient id="f93dcd97-1621-4256-aefa-74722e07e76c" x1="15.49" y1="-7.47" x2="5.63" y2="11.33" xlink:href="#bd2b2c9d-6bae-4648-8b42-091a152e2ef4"/><radialGradient id="fb779797-005f-42ff-a7e6-47daf5dd6203" cx="3.76" cy="9.56" r="5.3" gradientUnits="userSpaceOnUse"><stop offset="0" stop-color="#fff"/><stop offset="1"/></radialGradient><linearGradient id="b937b5b1-a72c-4660-a0d9-05cb9e0db84e" x1="27.53" y1="26.72" x2="40.01" y2="22.99" xlink:href="#bd2b2c9d-6bae-4648-8b42-091a152e2ef4"/><linearGradient id="ad82544c-2e3f-4395-b214-c2d79c6f05dd" x1="-14.8" y1="28.49" x2="47.09" y2="14.61" xlink:href="#bd2b2c9d-6bae-4648-8b42-091a152e2ef4"/><linearGradient id="bb1d16da-d0b8-4fff-9e89-44b6b5d6a6f3" x1="23.24" y1="7.32" x2="17.39" y2="18.46" xlink:href="#bd2b2c9d-6bae-4648-8b42-091a152e2ef4"/><linearGradient id="ac3d30f2-b576-4cf6-b96a-b133fb0f2955" x1="4574.84" y1="40.93" x2="4571.9" y2="35.85" gradientTransform="matrix(-1, 0, 0, 1, 4580.86, 0)" gradientUnits="userSpaceOnUse"><stop offset="0.29" stop-color="#838091"/><stop offset="0.47" stop-color="#a5a2b1"/><stop offset="0.59" stop-color="#b7b4c2"/><stop offset="0.81" stop-color="#9b98a7"/></linearGradient><linearGradient id="b75b21ab-904c-4409-9bea-aab29bd78743" x1="4571.85" y1="40.53" x2="4574.45" y2="36.06" gradientTransform="matrix(-1, 0, 0, 1, 4580.86, 0)" gradientUnits="userSpaceOnUse"><stop offset="0.04" stop-color="#9d9eb3"/><stop offset="0.58" stop-color="#d4d1d8"/><stop offset="1" stop-color="#eeebf2"/></linearGradient><linearGradient id="e9d0eb98-df5b-469c-bd7f-8f1bad5e39a8" x1="4573.56" y1="41.19" x2="4571.04" y2="36.82" gradientTransform="matrix(-1, 0, 0, 1, 4580.86, 0)" gradientUnits="userSpaceOnUse"><stop offset="0.04" stop-color="#9f19ab"/><stop offset="0.16" stop-color="#ae25b1"/><stop offset="0.41" stop-color="#d744bf"/><stop offset="0.63" stop-color="#ff63ce"/><stop offset="0.87" stop-color="#dc48c1"/></linearGradient><linearGradient id="f4cf3910-6c4d-4b2f-859d-e4ca4dc6f272" x1="4570.8" y1="40.96" x2="4573.02" y2="37.12" gradientTransform="matrix(-1, 0, 0, 1, 4580.86, 0)" gradientUnits="userSpaceOnUse"><stop offset="0.04" stop-color="#9f19ab"/><stop offset="0.24" stop-color="#ae25b1"/><stop offset="0.65" stop-color="#d744bf"/><stop offset="1" stop-color="#ff63ce"/></linearGradient><radialGradient id="a08905df-36ec-45f9-a412-196da2167276" cx="4572.4" cy="38.99" r="1.81" gradientTransform="matrix(-1, 0, 0, 1, 4580.86, 0)" xlink:href="#fb779797-005f-42ff-a7e6-47daf5dd6203"/><linearGradient id="a1aaac48-9127-48e0-a5cd-64948262cd1a" x1="4574.84" y1="33.44" x2="4571.9" y2="28.35" xlink:href="#ac3d30f2-b576-4cf6-b96a-b133fb0f2955"/><linearGradient id="ac40e8ef-6669-428e-b85c-3ec3fbab4abf" x1="4571.85" y1="33.03" x2="4574.45" y2="28.56" xlink:href="#b75b21ab-904c-4409-9bea-aab29bd78743"/><linearGradient id="ad048a14-02b6-4957-a930-d63a0c7fb99d" x1="4573.56" y1="33.69" x2="4571.04" y2="29.33" xlink:href="#e9d0eb98-df5b-469c-bd7f-8f1bad5e39a8"/><linearGradient id="a413355b-2a4b-4859-819b-328025b94c7e" x1="4570.8" y1="33.46" x2="4573.02" y2="29.62" xlink:href="#f4cf3910-6c4d-4b2f-859d-e4ca4dc6f272"/><radialGradient id="bb789adf-4114-4d93-a9ea-0d87f46bf866" cx="4572.4" cy="31.5" r="1.81" gradientTransform="matrix(-1, 0, 0, 1, 4580.86, 0)" xlink:href="#fb779797-005f-42ff-a7e6-47daf5dd6203"/><linearGradient id="b95a13e5-018f-462e-9767-c165c26f8c72" x1="4574.84" y1="48.43" x2="4571.9" y2="43.34" xlink:href="#ac3d30f2-b576-4cf6-b96a-b133fb0f2955"/><linearGradient id="a9fdc555-fb8f-499d-9cd9-28919b065c52" x1="4571.85" y1="48.03" x2="4574.45" y2="43.55" xlink:href="#b75b21ab-904c-4409-9bea-aab29bd78743"/><linearGradient id="a84618be-3f4c-4e20-8451-4d9cbaf19cec" x1="4573.56" y1="48.68" x2="4571.04" y2="44.32" xlink:href="#e9d0eb98-df5b-469c-bd7f-8f1bad5e39a8"/><linearGradient id="a87055c4-4c5c-402f-9b87-97747e769663" x1="4570.8" y1="48.45" x2="4573.02" y2="44.62" xlink:href="#f4cf3910-6c4d-4b2f-859d-e4ca4dc6f272"/><radialGradient id="ab6aaa58-a533-45e2-a7a6-a4af0f579531" cx="4572.4" cy="46.49" r="1.81" gradientTransform="matrix(-1, 0, 0, 1, 4580.86, 0)" xlink:href="#fb779797-005f-42ff-a7e6-47daf5dd6203"/><linearGradient id="aedeffe3-bff4-4c55-a909-2e0ce3f7c847" x1="28.53" y1="42.5" x2="43.89" y2="42.5" gradientUnits="userSpaceOnUse"><stop offset="0.01" stop-color="#c1a1d5"/><stop offset="0.07" stop-color="#d6c1e4"/><stop offset="0.17" stop-color="#f4eef7"/><stop offset="0.22" stop-color="#fff"/><stop offset="0.26" stop-color="#f9f5fb"/><stop offset="0.32" stop-color="#e9dbf2"/><stop offset="0.39" stop-color="#d1b4e3"/><stop offset="0.47" stop-color="#b395d6"/><stop offset="0.57" stop-color="#9575c8"/><stop offset="0.63" stop-color="#8969c3"/><stop offset="0.71" stop-color="#8b6bc4"/><stop offset="0.8" stop-color="#9876cb"/><stop offset="0.9" stop-color="#ac85d4"/><stop offset="0.98" stop-color="#9472c8"/></linearGradient><linearGradient id="a57d2093-2602-434b-8dec-3cbeeefdaa0a" x1="21.58" y1="28.09" x2="52.1" y2="23.06" gradientUnits="userSpaceOnUse"><stop offset="0.01" stop-color="#c1a1d5"/><stop offset="0.05" stop-color="#c8abda"/><stop offset="0.11" stop-color="#dac6e6"/><stop offset="0.2" stop-color="#f7f2f9"/><stop offset="0.22" stop-color="#fff"/><stop offset="0.25" stop-color="#f9f5fb"/><stop offset="0.3" stop-color="#e9dbf2"/><stop offset="0.36" stop-color="#d1b4e3"/><stop offset="0.43" stop-color="#b395d6"/><stop offset="0.49" stop-color="#9c7dcb"/><stop offset="0.56" stop-color="#8e6ec5"/><stop offset="0.61" stop-color="#8969c3"/><stop offset="0.76" stop-color="#9471c6"/><stop offset="1" stop-color="#b086cc"/></linearGradient><radialGradient id="a7c6fd40-e2e2-4910-be0b-9c57e39ed90f" cx="-6498.76" cy="-792.04" r="17.53" gradientTransform="matrix(0.24, -0.07, 0.28, 0.96, 1815.92, 331.99)" gradientUnits="userSpaceOnUse"><stop offset="0" stop-color="#972a74"/><stop offset="0.04" stop-color="#8a266a"/><stop offset="0.19" stop-color="#601b4a"/><stop offset="0.35" stop-color="#3d112f"/><stop offset="0.51" stop-color="#230a1b"/><stop offset="0.67" stop-color="#0f040c"/><stop offset="0.83" stop-color="#040103"/><stop offset="1"/></radialGradient><radialGradient id="a3f41e3b-f1eb-4fef-a1ab-133fcba7aa9e" cx="27791.08" cy="1240.5" r="17.5" gradientTransform="matrix(-0.17, -0.05, -0.31, 0.95, 5183.81, 373.79)" gradientUnits="userSpaceOnUse"><stop offset="0" stop-color="#732058"/><stop offset="0.08" stop-color="#601b49"/><stop offset="0.26" stop-color="#3d112f"/><stop offset="0.44" stop-color="#220a1a"/><stop offset="0.62" stop-color="#0f040c"/><stop offset="0.81" stop-color="#040103"/><stop offset="1"/></radialGradient><linearGradient id="bfcdd45d-9f14-41af-85ea-991bccd87e83" x1="56.47" y1="15.17" x2="14.91" y2="12.03" gradientUnits="userSpaceOnUse"><stop offset="0.01" stop-color="#c1a1d5"/><stop offset="0.05" stop-color="#c8abda"/><stop offset="0.11" stop-color="#dac6e6"/><stop offset="0.2" stop-color="#f7f2f9"/><stop offset="0.22" stop-color="#fff"/><stop offset="0.25" stop-color="#f9f5fb"/><stop offset="0.3" stop-color="#e9dbf2"/><stop offset="0.36" stop-color="#d1b4e3"/><stop offset="0.43" stop-color="#b395d6"/><stop offset="0.5" stop-color="#9c7dcb"/><stop offset="0.57" stop-color="#8e6ec5"/><stop offset="0.63" stop-color="#8969c3"/><stop offset="0.68" stop-color="#9374c8"/><stop offset="0.79" stop-color="#a588d1"/><stop offset="0.93" stop-color="#bc97d5"/><stop offset="0.97" stop-color="#b48bcf"/><stop offset="1" stop-color="#b086cc"/></linearGradient><linearGradient id="ec421338-cb05-423a-8886-bb6e8656b0db" x1="16.97" y1="18.96" x2="57.96" y2="18.96" gradientUnits="userSpaceOnUse"><stop offset="0.01" stop-color="#c1a1d5"/><stop offset="0.05" stop-color="#c8abda"/><stop offset="0.11" stop-color="#dac6e6"/><stop offset="0.2" stop-color="#f7f2f9"/><stop offset="0.22" stop-color="#fff"/><stop offset="0.25" stop-color="#f9f5fb"/><stop offset="0.3" stop-color="#e9dbf2"/><stop offset="0.36" stop-color="#d1b4e3"/><stop offset="0.43" stop-color="#b395d6"/><stop offset="0.5" stop-color="#9c7dcb"/><stop offset="0.57" stop-color="#8e6ec5"/><stop offset="0.63" stop-color="#8969c3"/><stop offset="0.67" stop-color="#9673c9"/><stop offset="0.75" stop-color="#b78dd9"/><stop offset="0.79" stop-color="#c699e0"/><stop offset="0.9" stop-color="#b78cd3"/><stop offset="1" stop-color="#b086cc"/></linearGradient><linearGradient id="e15522cc-823e-46b8-a1fd-c35e694483fd" x1="57.02" y1="12.13" x2="14.93" y2="12.13" xlink:href="#bfcdd45d-9f14-41af-85ea-991bccd87e83"/><linearGradient id="a6c4646a-971a-4d2e-ada1-d1eefe5f559e" x1="55.65" y1="16" x2="14.2" y2="9.1" gradientUnits="userSpaceOnUse"><stop offset="0.01" stop-color="#c1a1d5"/><stop offset="0.05" stop-color="#c8abda"/><stop offset="0.11" stop-color="#dac6e6"/><stop offset="0.2" stop-color="#f7f2f9"/><stop offset="0.22" stop-color="#fff"/><stop offset="0.25" stop-color="#f9f5fb"/><stop offset="0.3" stop-color="#e9dbf2"/><stop offset="0.36" stop-color="#d1b4e3"/><stop offset="0.43" stop-color="#b395d6"/><stop offset="0.5" stop-color="#9c7dcb"/><stop offset="0.57" stop-color="#8e6ec5"/><stop offset="0.63" stop-color="#8969c3"/><stop offset="0.75" stop-color="#9374c8"/><stop offset="1" stop-color="#a588d1"/></linearGradient><radialGradient id="a4767b48-a6ce-4545-ad07-6f9b55acf1f5" cx="37.16" cy="25.47" r="19.95" gradientUnits="userSpaceOnUse"><stop offset="0" stop-color="#8770b8"/><stop offset="1" stop-color="#fff"/></radialGradient><linearGradient id="bccb20b1-3c4e-4b10-933f-38154278b240" x1="32.67" y1="22.98" x2="42.38" y2="6.62" gradientUnits="userSpaceOnUse"><stop offset="0.04" stop-color="#ffa98c"/><stop offset="0.32" stop-color="#ffb892"/><stop offset="0.86" stop-color="#fee1a3"/><stop offset="1" stop-color="#feeca8"/></linearGradient><radialGradient id="a1e51539-efa9-4e89-846f-70b6853c8970" cx="9346.45" cy="16.2" r="7.96" gradientTransform="matrix(0.29, 0, 0, 0.9, -2727.09, 9.19)" xlink:href="#a7c6fd40-e2e2-4910-be0b-9c57e39ed90f"/><radialGradient id="be566df9-6e0b-49f9-a904-785ad64f0026" cx="9435.8" cy="-1550.53" r="7.96" gradientTransform="matrix(0.09, -0.28, 0.63, 0.21, 127, 2965.88)" xlink:href="#a7c6fd40-e2e2-4910-be0b-9c57e39ed90f"/></defs><g class="b7447842-5e70-4be2-9cf8-6e8919c40473"><g id="feaa3854-be91-4437-961b-8696480ce059" data-name="Layer 2"><g id="b0ec47eb-1640-4bb4-bc4d-551829476fc7" data-name="Layer 1"><path class="e249edd4-c0d2-4a47-bb9c-66bd77a2a3f7" d="M3,13.38,3,65.79l9-5.64V8Z"/><path class="f8be4ad5-aa15-4a6b-bd18-70858c0ff42c" d="M3,13.38Q3,39.59,3,65.79L0,67.08Q.32,39.55.64,12Z"/><polygon class="a4adc3b6-097a-45de-80ab-033dbb3e7297" points="0.64 12.03 2.99 13.38 12 7.98 9.63 6.61 0.64 12.03"/><path class="ae755ab7-7f91-4f08-8379-ced209ca27f4" d="M12,8,3,13,.62,12l2.07,1.55Q2.85,39.69,3,65.79l.2-52.24Z"/><polygon class="e070211e-5fcf-4f45-9c70-0b6eac122abd" points="26.15 25.1 26.15 30.46 30.82 27.77 30.82 22.41 26.15 25.1"/><polygon class="f7f71947-c35e-4840-a661-ef42917c3a9a" points="26.16 25.1 26.16 30.46 4.78 18.29 4.78 12.94 26.16 25.1"/><polygon class="bbe2e5fc-47cb-49a2-a532-5797a2b803fd" points="4.78 12.94 26.16 25.1 30.82 22.41 9.42 10.24 4.78 12.94"/><path class="bc552150-9b8b-43be-86eb-d341b7e869a3" d="M5.49,39.73A1.39,1.39,0,0,0,6,41l.63.36c.35.2.13-.25.66-.55a4.29,4.29,0,0,0,1.95-3.36c0-.61.56-.61.22-.82l-.7-.37a1.38,1.38,0,0,0-1.36.15A4.29,4.29,0,0,0,5.49,39.73Z"/><path class="f1dbc86e-1c72-47f0-852f-d3193f05e580" d="M6.17,40.11c0,1.24.87,1.73,1.94,1.11a4.27,4.27,0,0,0,2-3.35c0-1.24-.87-1.73-2-1.11A4.29,4.29,0,0,0,6.17,40.11Z"/><path class="b6b0333f-0179-44b1-b260-407cda552478" d="M6.64,40a1.17,1.17,0,0,0,.47,1.06l.94.56c.3.17.11-.21.57-.48a3.68,3.68,0,0,0,1.67-2.88c0-.52.48-.53.18-.7l-1-.57a1.21,1.21,0,0,0-1.17.13A3.68,3.68,0,0,0,6.64,40Z"/><path class="bbc637db-c426-4c5e-9676-66249f42cf89" d="M7.62,40.6c0,1.06.75,1.49,1.67.95A3.65,3.65,0,0,0,11,38.67c0-1.05-.74-1.48-1.67-1A3.68,3.68,0,0,0,7.62,40.6Z"/><path class="f29235c9-2fe9-4c04-b8d8-16f157f48411" d="M8,36.71a1.38,1.38,0,0,1,1.33-.16,1.54,1.54,0,0,0-1.16.23,4.27,4.27,0,0,0-1.95,3.35,1.33,1.33,0,0,0,.62,1.28,1.25,1.25,0,0,1-.79-1.34A4.27,4.27,0,0,1,8,36.71Z"/><path class="b30394e7-6077-41d9-aacf-808c4c8a48fc" d="M9.22,37.68a1.21,1.21,0,0,1,1.15-.14,1.36,1.36,0,0,0-1,.19,3.73,3.73,0,0,0-1.67,2.9,1.15,1.15,0,0,0,.53,1.1,1.09,1.09,0,0,1-.68-1.16A3.68,3.68,0,0,1,9.22,37.68Z"/><path class="b61524ad-a031-454a-9003-12901249139b" d="M5.49,32.24A1.37,1.37,0,0,0,6,33.47l.63.37c.35.19.13-.25.66-.56a4.27,4.27,0,0,0,1.95-3.36c0-.61.56-.61.22-.81l-.7-.38a1.4,1.4,0,0,0-1.36.15A4.3,4.3,0,0,0,5.49,32.24Z"/><path class="a3f1a54b-a867-4719-b5bf-7271b33baa58" d="M6.17,32.62c0,1.23.87,1.73,1.94,1.11a4.29,4.29,0,0,0,2-3.36c0-1.23-.87-1.73-2-1.11A4.3,4.3,0,0,0,6.17,32.62Z"/><path class="e507678e-ec7e-4008-a2ed-5184190ee9ae" d="M6.64,32.53a1.16,1.16,0,0,0,.47,1.06l.94.56c.3.17.11-.21.57-.48a3.68,3.68,0,0,0,1.67-2.88c0-.52.48-.52.18-.7,0,0-1-.56-1-.57a1.21,1.21,0,0,0-1.17.13A3.68,3.68,0,0,0,6.64,32.53Z"/><path class="a276f416-bc03-47db-b3df-ea5a51d83360" d="M7.62,33.11c0,1,.75,1.48,1.67,1A3.65,3.65,0,0,0,11,31.18c0-1.06-.74-1.49-1.67-.95A3.68,3.68,0,0,0,7.62,33.11Z"/><path class="f29235c9-2fe9-4c04-b8d8-16f157f48411" d="M8,29.22a1.41,1.41,0,0,1,1.33-.17,1.54,1.54,0,0,0-1.16.23,4.27,4.27,0,0,0-1.95,3.36,1.32,1.32,0,0,0,.62,1.27c-.48-.13-.79-.61-.79-1.34A4.27,4.27,0,0,1,8,29.22Z"/><path class="edae4082-6bd5-4dc7-831f-96c0daf3e5ab" d="M9.22,30.18A1.21,1.21,0,0,1,10.37,30a1.32,1.32,0,0,0-1,.2,3.7,3.7,0,0,0-1.67,2.89,1.13,1.13,0,0,0,.53,1.1c-.41-.11-.68-.52-.68-1.15A3.7,3.7,0,0,1,9.22,30.18Z"/><path class="b984b552-6f85-4620-9826-8e9b2b1b5db5" d="M5.49,47.23A1.4,1.4,0,0,0,6,48.47l.63.36c.35.2.13-.25.66-.56a4.27,4.27,0,0,0,1.95-3.35c0-.61.56-.62.22-.82l-.7-.38a1.4,1.4,0,0,0-1.36.15A4.3,4.3,0,0,0,5.49,47.23Z"/><path class="be10a7bc-7954-493b-adf2-c7a0f027401c" d="M6.17,47.61c0,1.23.87,1.73,1.94,1.11a4.27,4.27,0,0,0,2-3.36c0-1.23-.87-1.73-2-1.11A4.32,4.32,0,0,0,6.17,47.61Z"/><path class="aa9e70e8-d9a8-43d0-8aa3-63fa13fd460d" d="M6.64,47.52a1.16,1.16,0,0,0,.47,1.06l.94.57c.3.16.11-.22.57-.48a3.69,3.69,0,0,0,1.67-2.88c0-.53.48-.53.18-.71l-1-.56a1.18,1.18,0,0,0-1.17.12A3.71,3.71,0,0,0,6.64,47.52Z"/><path class="b1854202-2f98-4a88-ae0a-cd5a5cc44024" d="M7.62,48.1c0,1.06.75,1.48,1.67.95A3.65,3.65,0,0,0,11,46.17c0-1.06-.74-1.48-1.67-1A3.68,3.68,0,0,0,7.62,48.1Z"/><path class="f29235c9-2fe9-4c04-b8d8-16f157f48411" d="M8,44.21A1.41,1.41,0,0,1,9.35,44a1.54,1.54,0,0,0-1.16.23,4.29,4.29,0,0,0-1.95,3.36,1.32,1.32,0,0,0,.62,1.27c-.48-.13-.79-.6-.79-1.34A4.27,4.27,0,0,1,8,44.21Z"/><path class="e56b42c0-9494-4b56-8231-a0baa41a5ff4" d="M9.22,45.17A1.23,1.23,0,0,1,10.37,45a1.32,1.32,0,0,0-1,.2,3.7,3.7,0,0,0-1.67,2.9,1.12,1.12,0,0,0,.53,1.09c-.41-.11-.68-.52-.68-1.15A3.7,3.7,0,0,1,9.22,45.17Z"/><path class="fceedcac-67d7-4593-9ef0-7b7508febb34" d="M44.06,39.1H28.46v2.2h0v.06c0,2.51,3.49,4.54,7.8,4.54s7.8-2,7.8-4.54V41.3h0Z"/><path class="a17475dc-a79a-407a-84d5-ad065bd6a4f5" d="M57.12,13.56c0-6.68-41.65-6.48-41.65,0S28,39.13,28,39.15c1.22,2.89,3.72,4.48,8.32,4.48s7.09-1.74,8.33-4.48C45,38.34,57.12,20.25,57.12,13.56Z"/><path class="a3a5839a-6eb2-44c6-864c-9b1dad2603d9" d="M27.75,13,18.1,15.84l10.64,22.5c1.06,2.58,2.07,3.87,3.13,3.56s1.18-2.07.73-4.68C32.47,36.44,27.75,13,27.75,13Z"/><path class="fdc13df2-454a-4a93-8ceb-1eba01746f80" d="M48.55,13.33l6.84,2.19L44.88,38c-1.05,2.57-1.93,3.89-2.68,3.65s-.66-2-.06-4.53C42.32,36.35,48.55,13.33,48.55,13.33Z"/><ellipse class="e01dc30a-4f85-4eee-9f10-3f2f403d0775" cx="36.29" cy="13.64" rx="20.82" ry="12.13"/><path class="b70181b3-d774-4313-9023-6fafced10c2d" d="M57.12,12H15.47v1.54h0c0,.06,0,.11,0,.17,0,6.69,9.32,12.12,20.82,12.12s20.83-5.43,20.83-12.12c0-.06,0-.11,0-.17h0Z"/><path class="a6d4022c-070e-41ee-8a47-30deffcd9f78" d="M57.12,12H15.47v1.54h0c0,.06,0,.11,0,.17,0,6.69,9.32,12.12,20.82,12.12s20.83-5.43,20.83-12.12c0-.06,0-.11,0-.17h0Z"/><ellipse class="e25b519f-73a6-4983-966c-31411cfc129d" cx="36.29" cy="12.13" rx="20.82" ry="12.13"/><ellipse class="e25b519f-73a6-4983-966c-31411cfc129d" cx="36.29" cy="12.13" rx="20.82" ry="12.13"/><ellipse class="eedded3a-e3c8-41fd-8fc9-e94451c15301" cx="36.29" cy="12.78" rx="20.79" ry="11.48"/><ellipse class="f0d3093f-ab7d-4753-b277-0e9822b42a4a" cx="36.29" cy="12.78" rx="20.79" ry="11.48"/><path class="a582ff21-da2b-4dd0-b97d-5f4d3bf0476f" d="M36.29,9.48c-8.6,0-16,3-19.14,7.39,3.17,4.33,10.54,7.38,19.14,7.38s16-3.05,19.15-7.38C52.27,12.53,44.9,9.48,36.29,9.48Z"/><ellipse class="f922b8cc-f8bf-463b-aa7b-f89adb3703f5" cx="25.52" cy="23.7" rx="2.34" ry="7.17" transform="translate(-5.14 40.22) rotate(-71.2)"/></g></g></g></svg>