<svg xmlns="http://www.w3.org/2000/svg" xmlns:xlink="http://www.w3.org/1999/xlink" viewBox="0 0 16.99 13.02"><defs><style>.ef94f736-570c-48d8-b1c2-51e3e292f287{fill:url(#b7a126a9-93ff-4544-ab75-23e13244e053);}.b749e770-22a5-4d03-9674-c8adb5128d17{fill:url(#fe287880-61c0-46a8-9cbb-ac660452e000);}.b1b12745-25e7-49ef-b450-e1ce4f4d853a{fill:url(#fb37753b-afdc-4e32-9ca3-f0eb0d3ede09);}.eb64d46a-9060-4c42-81a9-f11a13344fb8{fill:url(#bf0f360b-e686-474c-8e72-05a26f105a11);}.b807da19-c36f-476d-94ab-fd7c33f6b23c{fill:url(#fdc9a3c8-6cda-46b7-8fa8-4bcb3bdcc623);}</style><linearGradient id="b7a126a9-93ff-4544-ab75-23e13244e053" x1="4376.86" y1="11.44" x2="4369.46" y2="-1.38" gradientTransform="matrix(-1, 0.04, 0.04, 1, 4377, -170.13)" gradientUnits="userSpaceOnUse"><stop offset="0.29" stop-color="#838091"/><stop offset="0.47" stop-color="#a5a2b1"/><stop offset="0.59" stop-color="#b7b4c2"/><stop offset="0.81" stop-color="#9b98a7"/></linearGradient><linearGradient id="fe287880-61c0-46a8-9cbb-ac660452e000" x1="4366.9" y1="7.96" x2="4388.31" y2="1.54" gradientTransform="matrix(-1, 0.04, 0.04, 1, 4377, -170.13)" gradientUnits="userSpaceOnUse"><stop offset="0.04" stop-color="#9d9eb3"/><stop offset="0.58" stop-color="#d4d1d8"/><stop offset="1" stop-color="#eeebf2"/></linearGradient><linearGradient id="fb37753b-afdc-4e32-9ca3-f0eb0d3ede09" x1="7.06" y1="6.55" x2="13.81" y2="6.55" gradientUnits="userSpaceOnUse"><stop offset="0" stop-color="#25054d"/><stop offset="1" stop-color="#45108a"/></linearGradient><linearGradient id="bf0f360b-e686-474c-8e72-05a26f105a11" x1="7.06" y1="6.5" x2="13.81" y2="6.5" xlink:href="#fb37753b-afdc-4e32-9ca3-f0eb0d3ede09"/><linearGradient id="fdc9a3c8-6cda-46b7-8fa8-4bcb3bdcc623" x1="8.49" y1="6.5" x2="12.43" y2="6.5" gradientTransform="matrix(1, 0, 0, 1, 0, 0)" xlink:href="#fe287880-61c0-46a8-9cbb-ac660452e000"/></defs><g id="a41f3f9c-1526-47b1-85b3-95bae67b9c74" data-name="Layer 2"><g id="faaf0610-9f2d-48d5-8f19-25709ab9a536" data-name="Layer 1"><path class="ef94f736-570c-48d8-b1c2-51e3e292f287" d="M2,5.27C.6,6.1.2,6.26.05,6.8c-.65,2.34,5.36,5.31,7,6.1a.48.48,0,0,0,.43.09c.29-.13.17-.92,1.18-1.56A10.78,10.78,0,0,0,13.18,2.8c0-1.19.8-1.49.76-1.8,0-.16-.2-.22-.29-.28A5.15,5.15,0,0,0,10.49.37C7.69,1,6.43,2.63,2,5.27Z"/><path class="b749e770-22a5-4d03-9674-c8adb5128d17" d="M4,9.57c.16,3.17,3.2,4.35,6.79,2.66A11.45,11.45,0,0,0,15.3,8.32,7.21,7.21,0,0,0,17,3.43,3.89,3.89,0,0,0,16,1C14.8-.2,12.61-.38,10.16.77,6.58,2.47,3.8,6.41,4,9.57Z"/><path id="cogwheel" class="b1b12745-25e7-49ef-b450-e1ce4f4d853a" d="M13.81,6.52s0,0,0-.06L13,6l.63-.69a3.35,3.35,0,0,0-.63-1l-.88.19,0-.88A3.43,3.43,0,0,0,11,3.2l-.53.69-.53-.68a3.11,3.11,0,0,0-1.16.42l0,.86L7.91,4.3a3.28,3.28,0,0,0-.62,1L7.88,6l-.81.43s0,.06,0,.08a3.24,3.24,0,0,0,.2,1.09l.93.13-.36.9a3.18,3.18,0,0,0,.87.76l.84-.53.31,1a3.68,3.68,0,0,0,.59.06A3.43,3.43,0,0,0,11,9.84l.31-1,.85.54A3.29,3.29,0,0,0,13,8.67l-.37-.93,1-.13A3.51,3.51,0,0,0,13.81,6.52Zm-3.35,2a2,2,0,1,1,2-2A2,2,0,0,1,10.46,8.47Z"/><path class="eb64d46a-9060-4c42-81a9-f11a13344fb8" d="M10.46,4.53a2,2,0,1,0,2,2A2,2,0,0,0,10.46,4.53Z"/><path class="b807da19-c36f-476d-94ab-fd7c33f6b23c" d="M10.46,4.53a2,2,0,1,0,2,2A2,2,0,0,0,10.46,4.53Z"/></g></g></svg>