<svg xmlns="http://www.w3.org/2000/svg" xmlns:xlink="http://www.w3.org/1999/xlink" viewBox="0 0 95.65 149.26"><defs><style>.bd2ee094-6865-4192-8846-c8560ae032d3{isolation:isolate;}.a25a4522-abb6-4172-b051-395e95c21a2e{fill:url(#bf643fbd-f7db-47b7-9a84-e238301d545c);}.f8a76a4d-63f8-44a5-aca5-0ae4cdc1f01c{fill:url(#afd75e4a-bb2e-4fb1-8fe7-2dd30730e10d);}.a8001ebb-1f8e-4e11-90bc-c506a55b319a{fill:url(#f7f4d293-9272-446d-8c15-f898c7fafaf3);}.bef9f387-3d1f-49e7-929b-c451c42efbff{fill:#25054d;}.b1125d7d-3759-46c9-bd1d-a7e568bd5c13{fill:url(#b3554d31-0838-41af-88aa-53865ddf1715);}.a61fcd1c-034c-48da-b3da-ed06a2a3ebb1,.bacd536c-a112-487e-bf36-747277a27ed5,.e8deb6fc-eef6-465b-8694-44b8f87ed21e{mix-blend-mode:color-dodge;}.a61fcd1c-034c-48da-b3da-ed06a2a3ebb1{fill:url(#b3af0825-00df-4739-93db-6205ad9ec23a);}.fbb2480e-2fab-4554-8367-79f9deaedf5e{fill:url(#af5150f9-a0b1-425b-9ea0-d172dc3e18af);}.e673f85b-8c24-4760-b9ae-428c15b6ecfc{fill:url(#bb2ba1ca-a6c5-4d6c-886a-1eea994c3ca9);}.e8ee7c14-f5d2-4392-8b3f-6e4e4f5357b4{fill:url(#b5cac631-fcea-4acc-b00b-9d3a3997675e);}.b7f703f7-103e-4f67-bcd4-3ac9715d9fb9{fill:url(#efa848ab-11c5-4887-bc07-2b2ce8a7d305);}.b5a1998d-78cc-4119-b4fe-61319e5a767b{fill:url(#a6b6194f-7932-45a7-9c34-f20df0b0db06);}.f699c842-ae61-42e4-858d-0e79813eea5c{fill:url(#b92887de-abc8-4159-bff8-05d3a1bd8efe);}.a08fe942-5057-4c91-bc45-ca26f9fa5edf{fill:url(#f1eda309-90a4-42b7-830d-8d008b2e2d38);}.ae0ebba7-95ce-41b9-9816-0bb099e7e68f{fill:#e6e7e8;}.a8ce1515-069a-4cbd-85b5-69e8688bd216,.ae0ebba7-95ce-41b9-9816-0bb099e7e68f,.b8f2e3a8-3719-4ffe-8f1c-f7e7a4bb0eb1{mix-blend-mode:screen;}.e8deb6fc-eef6-465b-8694-44b8f87ed21e{fill:url(#b56a5b01-4a8f-4d80-97d4-11841bde9066);}.f7633a65-e826-4268-bf15-60dd1a1a66d5{fill:url(#b029c1c5-b300-4555-b450-6d36920d7203);}.f6b9713d-47e6-4915-b24f-49c736c94e7b{fill:url(#b96d4fb2-edc6-40ff-9542-bea3b1d7c3a7);}.a8ce1515-069a-4cbd-85b5-69e8688bd216{fill:url(#b2616b69-64d3-420c-93d0-8285727cf86c);}.b8f2e3a8-3719-4ffe-8f1c-f7e7a4bb0eb1{fill:url(#aae4355f-1516-4321-82c8-995187fb2716);}.a8db8ab6-b476-4cd4-a296-9268bc8de312{fill:url(#f22db525-02a3-4224-a636-2b41d749269f);}.eebdc979-4659-4101-a296-90e87f288781{fill:url(#e8cf6a4c-1e42-4611-b578-a474db767c1c);}.bf510d88-25a7-42d1-8116-33a7ded0f7bf{fill:url(#b20972d6-8f54-4448-9754-e6781c6940ca);}.e4a2def6-0ee3-4183-b0b0-3316f8e5251a{fill:url(#e4a451d4-5016-45e6-8376-713c93013a11);}.b9d8fa69-ced3-4421-b961-fb9b02a29637{fill:url(#f1f77436-6745-4d43-ab40-b8a72c318465);}</style><linearGradient id="bf643fbd-f7db-47b7-9a84-e238301d545c" x1="62.09" y1="111.14" x2="189.47" y2="73" gradientUnits="userSpaceOnUse"><stop offset="0" stop-color="#9f79c8"/><stop offset="0.14" stop-color="#a580cb"/><stop offset="0.33" stop-color="#b492d3"/><stop offset="0.55" stop-color="#cdb0e1"/><stop offset="0.58" stop-color="#d1b4e3"/><stop offset="0.76" stop-color="#dbc4e9"/><stop offset="1" stop-color="#ebdef3"/></linearGradient><linearGradient id="afd75e4a-bb2e-4fb1-8fe7-2dd30730e10d" x1="-58.1" y1="126.62" x2="109.67" y2="89.01" gradientUnits="userSpaceOnUse"><stop offset="0" stop-color="#25054d"/><stop offset="1" stop-color="#45108a"/></linearGradient><linearGradient id="f7f4d293-9272-446d-8c15-f898c7fafaf3" x1="-48.77" y1="86.57" x2="89.73" y2="127.8" xlink:href="#bf643fbd-f7db-47b7-9a84-e238301d545c"/><linearGradient id="b3554d31-0838-41af-88aa-53865ddf1715" x1="90.54" y1="-14.21" x2="36.98" y2="87.88" xlink:href="#bf643fbd-f7db-47b7-9a84-e238301d545c"/><radialGradient id="b3af0825-00df-4739-93db-6205ad9ec23a" cx="48.72" cy="80.16" r="22.91" gradientUnits="userSpaceOnUse"><stop offset="0" stop-color="#fff"/><stop offset="1"/></radialGradient><linearGradient id="af5150f9-a0b1-425b-9ea0-d172dc3e18af" x1="-131.71" y1="89.69" x2="-117.21" y2="110.71" gradientTransform="translate(147.87)" gradientUnits="userSpaceOnUse"><stop offset="0.17" stop-color="#dc48c1"/><stop offset="0.31" stop-color="#df4ac2"/><stop offset="0.41" stop-color="#e851c5"/><stop offset="0.49" stop-color="#f75dcb"/><stop offset="0.52" stop-color="#ff63ce"/><stop offset="0.91" stop-color="#9f19ab"/></linearGradient><linearGradient id="bb2ba1ca-a6c5-4d6c-886a-1eea994c3ca9" x1="338.96" y1="1781.45" x2="363.37" y2="1781.45" gradientTransform="matrix(0.87, 0.5, 0.5, 1.44, -1171.85, -2646.58)" gradientUnits="userSpaceOnUse"><stop offset="0.04" stop-color="#9f19ab"/><stop offset="0.24" stop-color="#ae25b1"/><stop offset="0.65" stop-color="#d744bf"/><stop offset="1" stop-color="#ff63ce"/></linearGradient><linearGradient id="b5cac631-fcea-4acc-b00b-9d3a3997675e" x1="342.33" y1="1777.74" x2="382.17" y2="1794.46" gradientTransform="matrix(0.87, 0.5, 0.5, 1.44, -1171.85, -2646.58)" gradientUnits="userSpaceOnUse"><stop offset="0.04" stop-color="#9d9eb3"/><stop offset="0.58" stop-color="#d4d1d8"/><stop offset="1" stop-color="#eeebf2"/></linearGradient><linearGradient id="efa848ab-11c5-4887-bc07-2b2ce8a7d305" x1="-124.58" y1="113.69" x2="-127.52" y2="108.6" gradientTransform="translate(147.87)" gradientUnits="userSpaceOnUse"><stop offset="0.29" stop-color="#838091"/><stop offset="0.47" stop-color="#a5a2b1"/><stop offset="0.59" stop-color="#b7b4c2"/><stop offset="0.81" stop-color="#9b98a7"/></linearGradient><linearGradient id="a6b6194f-7932-45a7-9c34-f20df0b0db06" x1="-127.59" y1="113.3" x2="-125" y2="108.83" gradientTransform="translate(147.87)" xlink:href="#b5cac631-fcea-4acc-b00b-9d3a3997675e"/><linearGradient id="b92887de-abc8-4159-bff8-05d3a1bd8efe" x1="-125.86" y1="113.95" x2="-128.38" y2="109.58" gradientTransform="translate(147.87)" gradientUnits="userSpaceOnUse"><stop offset="0.34" stop-color="#fbcd9c"/><stop offset="0.81" stop-color="#feeca8"/><stop offset="0.91" stop-color="#ffa98c"/></linearGradient><linearGradient id="f1eda309-90a4-42b7-830d-8d008b2e2d38" x1="-128.65" y1="113.73" x2="-126.42" y2="109.89" gradientTransform="translate(147.87)" gradientUnits="userSpaceOnUse"><stop offset="0.04" stop-color="#ffa98c"/><stop offset="0.32" stop-color="#ffb892"/><stop offset="0.86" stop-color="#fee1a3"/><stop offset="1" stop-color="#feeca8"/></linearGradient><radialGradient id="b56a5b01-4a8f-4d80-97d4-11841bde9066" cx="-127.05" cy="111.77" r="1.81" gradientTransform="translate(147.87)" xlink:href="#b3af0825-00df-4739-93db-6205ad9ec23a"/><linearGradient id="b029c1c5-b300-4555-b450-6d36920d7203" x1="47.81" y1="43.51" x2="47.81" y2="81.38" gradientTransform="matrix(1, 0, 0, 1, 0, 0)" xlink:href="#f1eda309-90a4-42b7-830d-8d008b2e2d38"/><radialGradient id="b96d4fb2-edc6-40ff-9542-bea3b1d7c3a7" cx="47.6" cy="86.18" r="18.6" xlink:href="#b3af0825-00df-4739-93db-6205ad9ec23a"/><linearGradient id="b2616b69-64d3-420c-93d0-8285727cf86c" x1="47.81" y1="86.6" x2="47.81" y2="3.22" gradientUnits="userSpaceOnUse"><stop offset="0" stop-color="#ffe4a7"/><stop offset="0.02" stop-color="#f7dda2"/><stop offset="0.13" stop-color="#beaa7c"/><stop offset="0.25" stop-color="#8b7c5b"/><stop offset="0.37" stop-color="#60563f"/><stop offset="0.49" stop-color="#3e3728"/><stop offset="0.62" stop-color="#231f17"/><stop offset="0.74" stop-color="#fff"/><stop offset="0.87" stop-color="#fff"/><stop offset="1"/></linearGradient><linearGradient id="aae4355f-1516-4321-82c8-995187fb2716" x1="47.92" y1="80.85" x2="47.92" y2="1.56" gradientUnits="userSpaceOnUse"><stop offset="0" stop-color="#dc3daa"/><stop offset="0.07" stop-color="#bd3492"/><stop offset="0.2" stop-color="#8b276b"/><stop offset="0.33" stop-color="#601b4a"/><stop offset="0.46" stop-color="#3e1130"/><stop offset="0.59" stop-color="#230a1b"/><stop offset="0.72" stop-color="#0f040c"/><stop offset="0.86" stop-color="#040103"/><stop offset="1"/></linearGradient><linearGradient id="f22db525-02a3-4224-a636-2b41d749269f" x1="-618.28" y1="120.97" x2="-632.29" y2="102.41" gradientTransform="translate(693.45)" gradientUnits="userSpaceOnUse"><stop offset="0" stop-color="#25054d"/><stop offset="0.21" stop-color="#2d085d"/><stop offset="0.62" stop-color="#430f87"/><stop offset="0.65" stop-color="#45108a"/></linearGradient><linearGradient id="e8cf6a4c-1e42-4611-b578-a474db767c1c" x1="-689.75" y1="138.55" x2="-542.82" y2="105.61" gradientTransform="translate(693.45)" xlink:href="#b5cac631-fcea-4acc-b00b-9d3a3997675e"/><linearGradient id="b20972d6-8f54-4448-9754-e6781c6940ca" x1="-615.42" y1="117.73" x2="-589.46" y2="111.91" gradientTransform="translate(693.45)" xlink:href="#b5cac631-fcea-4acc-b00b-9d3a3997675e"/><linearGradient id="e4a451d4-5016-45e6-8376-713c93013a11" x1="5297.95" y1="133.15" x2="5319.23" y2="126.78" gradientTransform="matrix(-1, 0, 0, 1, 5357.87, 0)" xlink:href="#b5cac631-fcea-4acc-b00b-9d3a3997675e"/><linearGradient id="f1f77436-6745-4d43-ab40-b8a72c318465" x1="-588.73" y1="48.35" x2="-626.69" y2="120.69" gradientTransform="translate(693.45)" xlink:href="#b5cac631-fcea-4acc-b00b-9d3a3997675e"/></defs><g class="bd2ee094-6865-4192-8846-c8560ae032d3"><g id="a8517288-be44-4c0d-a44f-e2c2967f2e9f" data-name="Layer 2"><g id="afc905eb-b169-4f63-a941-0b22147af8a2" data-name="Layer 1"><polygon class="a25a4522-abb6-4172-b051-395e95c21a2e" points="47.89 95.08 47.89 149.26 95.65 121.41 95.65 67.23 47.89 95.08"/><polygon class="f8a76a4d-63f8-44a5-aca5-0ae4cdc1f01c" points="47.92 95.08 47.92 149.26 0 121.33 0 67.18 47.92 95.08"/><polygon class="a8001ebb-1f8e-4e11-90bc-c506a55b319a" points="47.92 95.08 47.92 149.26 0 121.33 0 67.18 47.92 95.08"/><polygon class="bef9f387-3d1f-49e7-929b-c451c42efbff" points="10.79 110.2 10.79 83.51 35.63 98 35.63 124.71 10.79 110.2"/><polygon class="b1125d7d-3759-46c9-bd1d-a7e568bd5c13" points="0 67.18 47.92 95.08 95.65 67.23 47.68 39.29 0 67.18"/><polygon class="a61fcd1c-034c-48da-b3da-ed06a2a3ebb1" points="20.88 79.16 47.28 95.09 47.76 115.13 48.31 95.06 74.73 79.1 47.8 94.5 20.88 79.16"/><path class="fbb2480e-2fab-4554-8367-79f9deaedf5e" d="M30.54,110.47l-14.21-8.2a3.36,3.36,0,0,1-1.41-2.68V91.06c0-1,.63-1.5,1.41-1.06l14.21,8.21a3.35,3.35,0,0,1,1.4,2.68v8.52C31.94,110.45,31.31,110.92,30.54,110.47Z"/><path class="e673f85b-8c24-4760-b9ae-428c15b6ecfc" d="M30.08,110.58l-14.21-8.21a3.34,3.34,0,0,1-1.4-2.67V91.17c0-1,.63-1.51,1.4-1.06l14.21,8.2A3.36,3.36,0,0,1,31.49,101v8.53C31.49,110.55,30.86,111,30.08,110.58Z"/><path class="e8ee7c14-f5d2-4392-8b3f-6e4e4f5357b4" d="M15,100.08V91.37c0-.66.4-1,.89-.68L30.08,98.9a2.12,2.12,0,0,1,.9,1.7v8.72c0,.66-.4,1-.9.68l-14.21-8.21A2.14,2.14,0,0,1,15,100.08Z"/><path class="bef9f387-3d1f-49e7-929b-c451c42efbff" d="M29.93,105.79a.42.42,0,0,0-.28-.32l-.11,0a13.66,13.66,0,0,0-.47-1.59.31.31,0,0,0,.15-.1.43.43,0,0,0-.35-.59h-.06a15.84,15.84,0,0,0-.77-1.61.25.25,0,0,0,.12-.16.42.42,0,0,0-.07-.31.36.36,0,0,0-.3-.2h-.08l0,0a15.11,15.11,0,0,0-1-1.46l0,0a.38.38,0,0,0-.07-.46.29.29,0,0,0-.42-.06A16.66,16.66,0,0,0,25,97.68l0-.11a.43.43,0,0,0-.16-.42.28.28,0,0,0-.42,0,10.4,10.4,0,0,0-1.19-.85v-.14a.45.45,0,0,0-.23-.39l-.09,0h-.06a.26.26,0,0,0-.25.21,8,8,0,0,0-1.12-.46l0-.18a.41.41,0,0,0-.3-.32h-.07a.27.27,0,0,0-.21.09.31.31,0,0,0-.05.25,5.48,5.48,0,0,0-.89-.09H19.9l-.07-.17a.37.37,0,0,0-.33-.26h0a.26.26,0,0,0-.2.13.31.31,0,0,0,0,.3l0,.06a3.72,3.72,0,0,0-.82.25l-.07-.12a.35.35,0,0,0-.3-.19.34.34,0,0,0-.15,0,.3.3,0,0,0-.12.17.35.35,0,0,0,.05.29l.06.11a3.44,3.44,0,0,0-.63.58l0,0a.29.29,0,0,0-.49,0,.35.35,0,0,0,0,.43l.11.14a4.55,4.55,0,0,0-.41.89A.28.28,0,0,0,16,98a.41.41,0,0,0,.14.39l.22.2a.56.56,0,0,0,.14.2l.07,0a.31.31,0,0,0,.46-.17,3.11,3.11,0,0,1,3.08-2.59,5.61,5.61,0,0,1,2.74.84,14,14,0,0,1,6,8.79.52.52,0,0,0,.34.39h.15l.21,0h.08a.25.25,0,0,0,.2-.09A.31.31,0,0,0,29.93,105.79Zm-3.45-6.68Z"/><path id="temperature-arrow" class="bef9f387-3d1f-49e7-929b-c451c42efbff" d="M17.05,98.68l5.29,5.42v0a1.11,1.11,0,0,0,.89.51.57.57,0,0,0,.29-.07.45.45,0,0,0,.12-.65,1.11,1.11,0,0,0-.54-.43Z"/><path class="b7f703f7-103e-4f67-bcd4-3ac9715d9fb9" d="M23.79,112.51a1.36,1.36,0,0,1-.55,1.23l-.63.37c-.33.18-.15-.21-.57-.51a4.79,4.79,0,0,1-2-3.4c0-.62-.57-.62-.22-.83l.7-.37a1.36,1.36,0,0,1,1.35.15A4.27,4.27,0,0,1,23.79,112.51Z"/><path class="b5a1998d-78cc-4119-b4fe-61319e5a767b" d="M23.11,112.78a1.34,1.34,0,0,1-2,1.17,4.35,4.35,0,0,1-1.87-3.21,1.34,1.34,0,0,1,2-1.16A4.33,4.33,0,0,1,23.11,112.78Z"/><path id="oven-lamp" class="f699c842-ae61-42e4-858d-0e79813eea5c" d="M22.64,112.8a1.17,1.17,0,0,1-.47,1.06l-.94.56c-.29.16-.13-.17-.5-.43A4.18,4.18,0,0,1,19,111.06c0-.52-.48-.53-.19-.7l1-.57a1.21,1.21,0,0,1,1.17.13A3.68,3.68,0,0,1,22.64,112.8Z"/><path id="oven-lamp" class="a08fe942-5057-4c91-bc45-ca26f9fa5edf" d="M21.65,113.44a1,1,0,0,1-1.6.92,3.63,3.63,0,0,1-1.73-3,1,1,0,0,1,1.59-.92A3.64,3.64,0,0,1,21.65,113.44Z"/><path class="ae0ebba7-95ce-41b9-9816-0bb099e7e68f" d="M21.38,109.48a1.28,1.28,0,0,0-1.25-.16,1.38,1.38,0,0,1,1.09.23,4.34,4.34,0,0,1,1.83,3.35,1.37,1.37,0,0,1-.58,1.28c.45-.14.73-.61.73-1.34A4.35,4.35,0,0,0,21.38,109.48Z"/><path class="e8deb6fc-eef6-465b-8694-44b8f87ed21e" d="M20.06,110.45a1.21,1.21,0,0,0-1.15-.14,1.33,1.33,0,0,1,1,.19,3.71,3.71,0,0,1,1.68,2.9,1.15,1.15,0,0,1-.53,1.1,1.08,1.08,0,0,0,.68-1.16A3.68,3.68,0,0,0,20.06,110.45Z"/><polygon class="f7633a65-e826-4268-bf15-60dd1a1a66d5" id="oven-light" points="15.21 67.75 47.59 86.6 80.4 67.72 47.99 48.85 15.21 67.75"/><g class="bacd536c-a112-487e-bf36-747277a27ed5" id="oven-core-light"><polygon class="f6b9713d-47e6-4915-b24f-49c736c94e7b" points="31.59 77.22 47.7 86.6 64.02 77.21 47.9 67.82 31.59 77.22"/></g><polygon class="a8db8ab6-b476-4cd4-a296-9268bc8de312" points="60.61 118.65 90.54 101.05 90.54 124.33 60.61 141.93 60.61 118.65"/><polygon class="eebdc979-4659-4101-a296-90e87f288781" points="57.88 117.07 57.88 148.61 60.61 147 60.61 118.65 90.54 101.05 90.54 129.41 93.27 127.8 93.27 96.27 57.88 117.07"/><polygon class="bf510d88-25a7-42d1-8116-33a7ded0f7bf" points="89.41 127.58 91.67 128.86 91.67 100.48 89.41 101.81 89.41 127.58"/><polygon class="eebdc979-4659-4101-a296-90e87f288781" points="57.88 117.07 57.88 148.61 60.61 147 60.61 118.65 90.54 101.05 90.54 116.13 93.27 114.53 93.27 96.27 57.88 117.07"/><polygon class="e4a2def6-0ee3-4183-b0b0-3316f8e5251a" points="57.9 117.07 57.9 148.61 55.64 147.32 55.64 115.81 57.9 117.07"/><polygon class="b9d8fa69-ced3-4421-b961-fb9b02a29637" points="55.64 115.81 57.9 117.07 93.27 96.27 90.97 94.98 55.64 115.81"/></g></g></g></svg>