<svg xmlns="http://www.w3.org/2000/svg" xmlns:xlink="http://www.w3.org/1999/xlink" viewBox="0 0 60.18 103.28"><defs><style>.b4318ebd-71dc-429b-b690-d35afe2427c2{isolation:isolate;}.b3eb1823-322c-44a4-adc8-2f55f739e6fc{fill:url(#f0969a74-05a7-49c2-8eea-eac049b64ef1);}.b2f9fedf-953f-4668-b041-7bbd5f3df8eb{fill:url(#b4b34229-4482-4c68-a57b-a7235a3741a9);}.a82b88e8-dd11-4010-9271-fce03b8a464b{fill:url(#b92c35b2-56c6-4b68-b2f0-5fed4278db1e);}.a0671467-5689-4b12-a404-0de6a0ba335a{fill:#b086cc;mix-blend-mode:multiply;opacity:0.5;}.bfaf0cf2-4cb0-4e18-8ab1-b37b2c8469f5{fill:url(#e1d22ebc-9d96-4152-af97-4a4440fbd355);}.b4cf49a7-fd18-48ee-b12e-85e50077ceb6,.f0ba7ba5-df34-462c-b7d5-fc1d0d4c2ade{mix-blend-mode:color-dodge;}.b4cf49a7-fd18-48ee-b12e-85e50077ceb6{fill:url(#b8726351-5145-4075-a11a-a62e008d1616);}.bc5c472d-623a-4aa6-81d4-925b8ac420c1{fill:url(#a2193353-bee1-465e-9938-9971e45516f6);}.ad21aa30-ae9d-4cee-8369-fcdee6384169{fill:url(#aa3c4f9e-e3c5-4660-8fc0-254d0ba02d7c);}.ee3d18e1-b377-4fad-897c-623ce88e9bda{fill:url(#a08d6513-371e-4e70-8bae-9afe66ff177f);}.b1bdd1b1-f1c8-4350-806a-a9667c8d11e3{fill:url(#bb7e2b7d-4c8b-40ed-8a08-34bbbe52f55e);}.b7efe416-b341-4925-a659-301456eb17f7{fill:url(#baced976-a159-4a77-ac97-625644fab238);}.e7bc7d80-4dfc-4bf9-be1f-e29e495774ef{fill:url(#b15f0fa0-0ec2-4298-96c6-62f23d0d79f8);}.ec197b64-9907-4218-8126-f2df728089a2{fill:url(#f1276ce0-2b6d-4e01-a232-3ba987c999d3);}.b3c29102-2397-41bd-aa3a-757b599708e1{fill:url(#f8799081-83e9-45ea-a6dd-686806ba936d);}.aa01fab1-d19b-4b80-924f-09face4ad2a7{fill:url(#fe6d7d1d-6133-430d-be15-ea5cc38c800c);}.b454b934-84fa-45d7-b751-ecac6bcc7521{fill:url(#aafbaf15-a19a-456b-ad8f-d937fca80467);}.bb1fe1b8-9fe0-4a19-927f-10d28728df6d{fill:url(#a44f78ac-000b-4021-ba07-4e5824e1ddb6);}.a926d3d2-991a-470a-979d-1f35c1f99011{fill:url(#f75aa186-1199-44aa-b4ae-6a204d14b390);}.f866f864-d711-4678-a76e-705f21139306{fill:url(#a6a76942-7c0a-437f-943c-2e235ffd6db2);}.ef3dafdc-aebc-4ba3-982c-ae0921ec3cfa{fill:url(#a200bc15-2218-4f7e-ac8e-f593408f2175);}.b4ebef51-a829-4c8a-ae89-51db9dd64e43{fill:url(#fca875eb-378f-4a23-ae6d-b4581a9dac1b);}.f2442d67-99c8-4ba9-920d-145649cff55a{fill:url(#eee032c8-81e3-4400-8abf-c4f6f66bcc02);}.e9ff7ef1-4873-448e-bb24-963b51e065e0{fill:url(#e7ac9306-31a2-40ea-864f-2ea544fd4ea0);}.e49f57e5-bee6-4295-a7f0-513e5002fb26{fill:url(#e573ee61-b67a-4be2-9b71-9114fa2d58d7);}.b711eed2-2c2a-4cf9-80e5-6807f0a48874{fill:url(#ae5420b1-357e-41fe-bcee-d22b10a497d8);}.bd4c007d-d809-4d77-880b-8400921bb84d{fill:url(#ec750f4e-0811-4a96-8a05-9f00d1b8929f);}.e2331740-5dd0-40bf-891c-86c46fb579ec{fill:url(#f2f7ab95-a7a9-4820-9d0f-6bd0c18eea12);}.b6f34a9c-1d78-4572-8585-52475d2748da{fill:url(#be619832-e0d1-4321-be21-61e5ddb36272);}.f8d0b493-d690-4bc4-a787-4a9dea2d13c1{fill:url(#bc70ca6e-d1e6-428b-9acb-e04005972b06);}.a363c538-1415-48ae-b3a8-91baad9e4574{fill:url(#a4d4c4fc-393d-47dc-9cc2-31aac2ec6c13);}.f809022e-cdf8-428b-ba14-31f812de4379{fill:url(#a1d3e97d-4df2-41e4-b31c-bc257ae766b4);}.b20dbfc9-6400-45e2-8dba-6da35bebd298{fill:url(#b9ec6708-da94-48a8-acae-d6d075baa3da);}.fbeb2a71-ea52-4e18-8ee1-f7cf929e2e73{fill:url(#a24d130b-8477-4ff1-a51b-6d671ceb5d42);}.b743d369-90cb-4206-9219-5e639e0c833b{fill:url(#fc86aef0-ed86-46ba-9f4a-fadf7f20daba);}.f0ba7ba5-df34-462c-b7d5-fc1d0d4c2ade{fill:url(#bca493a3-3c2c-4e03-86e9-42f5f6348389);}</style><linearGradient id="f0969a74-05a7-49c2-8eea-eac049b64ef1" x1="2.69" y1="37.56" x2="55.93" y2="21.62" gradientUnits="userSpaceOnUse"><stop offset="0" stop-color="#9f79c8"/><stop offset="0.14" stop-color="#a580cb"/><stop offset="0.33" stop-color="#b492d3"/><stop offset="0.55" stop-color="#cdb0e1"/><stop offset="0.58" stop-color="#d1b4e3"/><stop offset="0.76" stop-color="#dbc4e9"/><stop offset="1" stop-color="#ebdef3"/></linearGradient><linearGradient id="b4b34229-4482-4c68-a57b-a7235a3741a9" x1="-25.15" y1="44.71" x2="28.29" y2="32.73" xlink:href="#f0969a74-05a7-49c2-8eea-eac049b64ef1"/><linearGradient id="b92c35b2-56c6-4b68-b2f0-5fed4278db1e" x1="14.86" y1="-14.08" x2="5" y2="4.71" xlink:href="#f0969a74-05a7-49c2-8eea-eac049b64ef1"/><linearGradient id="e1d22ebc-9d96-4152-af97-4a4440fbd355" x1="11.39" y1="39.33" x2="9.49" y2="39.33" gradientUnits="userSpaceOnUse"><stop offset="0" stop-color="#25054d"/><stop offset="1" stop-color="#45108a"/></linearGradient><radialGradient id="b8726351-5145-4075-a11a-a62e008d1616" cx="3.14" cy="3.42" r="6.84" gradientUnits="userSpaceOnUse"><stop offset="0" stop-color="#fff"/><stop offset="1"/></radialGradient><linearGradient id="a2193353-bee1-465e-9938-9971e45516f6" x1="26.86" y1="48.26" x2="38.12" y2="48.26" gradientUnits="userSpaceOnUse"><stop offset="0.01" stop-color="#c1a1d5"/><stop offset="0.07" stop-color="#d6c1e4"/><stop offset="0.17" stop-color="#f4eef7"/><stop offset="0.22" stop-color="#fff"/><stop offset="0.26" stop-color="#f9f5fb"/><stop offset="0.32" stop-color="#e9dbf2"/><stop offset="0.39" stop-color="#d1b4e3"/><stop offset="0.47" stop-color="#b395d6"/><stop offset="0.57" stop-color="#9575c8"/><stop offset="0.63" stop-color="#8969c3"/><stop offset="0.71" stop-color="#8b6bc4"/><stop offset="0.8" stop-color="#9876cb"/><stop offset="0.9" stop-color="#ac85d4"/><stop offset="0.98" stop-color="#9472c8"/></linearGradient><linearGradient id="aa3c4f9e-e3c5-4660-8fc0-254d0ba02d7c" x1="12.71" y1="25.04" x2="30.86" y2="19.61" gradientUnits="userSpaceOnUse"><stop offset="0.04" stop-color="#9d9eb3"/><stop offset="0.58" stop-color="#d4d1d8"/><stop offset="1" stop-color="#eeebf2"/></linearGradient><linearGradient id="a08d6513-371e-4e70-8bae-9afe66ff177f" x1="3.63" y1="27.22" x2="17.59" y2="24.1" xlink:href="#aa3c4f9e-e3c5-4660-8fc0-254d0ba02d7c"/><linearGradient id="bb7e2b7d-4c8b-40ed-8a08-34bbbe52f55e" x1="18.72" y1="7.1" x2="12.77" y2="18.44" xlink:href="#aa3c4f9e-e3c5-4660-8fc0-254d0ba02d7c"/><linearGradient id="baced976-a159-4a77-ac97-625644fab238" x1="52.07" y1="31.37" x2="64.54" y2="27.64" xlink:href="#f0969a74-05a7-49c2-8eea-eac049b64ef1"/><linearGradient id="b15f0fa0-0ec2-4298-96c6-62f23d0d79f8" x1="-32.92" y1="33.38" x2="92.33" y2="5.3" xlink:href="#f0969a74-05a7-49c2-8eea-eac049b64ef1"/><linearGradient id="f1276ce0-2b6d-4e01-a232-3ba987c999d3" x1="37.16" y1="3.26" x2="30.18" y2="16.56" xlink:href="#f0969a74-05a7-49c2-8eea-eac049b64ef1"/><linearGradient id="f8799081-83e9-45ea-a6dd-686806ba936d" x1="-533.7" y1="27.55" x2="-497.69" y2="16.77" gradientTransform="matrix(-1, 0, 0, 1, -508.49, 0)" xlink:href="#e1d22ebc-9d96-4152-af97-4a4440fbd355"/><linearGradient id="fe6d7d1d-6133-430d-be15-ea5cc38c800c" x1="-541.65" y1="31.72" x2="-538.39" y2="30.98" gradientTransform="matrix(-1, 0, 0, 1, -508.49, 0)" xlink:href="#e1d22ebc-9d96-4152-af97-4a4440fbd355"/><linearGradient id="aafbaf15-a19a-456b-ad8f-d937fca80467" x1="-514.52" y1="-6.29" x2="-532.73" y2="28.41" gradientTransform="matrix(-1, 0, 0, 1, -508.49, 0)" xlink:href="#e1d22ebc-9d96-4152-af97-4a4440fbd355"/><linearGradient id="a44f78ac-000b-4021-ba07-4e5824e1ddb6" x1="-533.7" y1="32.99" x2="-497.69" y2="22.2" gradientTransform="matrix(-1, 0, 0, 1, -508.49, 0)" xlink:href="#e1d22ebc-9d96-4152-af97-4a4440fbd355"/><linearGradient id="f75aa186-1199-44aa-b4ae-6a204d14b390" x1="-541.65" y1="37.15" x2="-538.39" y2="36.42" gradientTransform="matrix(-1, 0, 0, 1, -508.49, 0)" xlink:href="#e1d22ebc-9d96-4152-af97-4a4440fbd355"/><linearGradient id="a6a76942-7c0a-437f-943c-2e235ffd6db2" x1="-514.52" y1="-0.86" x2="-532.73" y2="33.84" gradientTransform="matrix(-1, 0, 0, 1, -508.49, 0)" xlink:href="#e1d22ebc-9d96-4152-af97-4a4440fbd355"/><linearGradient id="a200bc15-2218-4f7e-ac8e-f593408f2175" x1="34.38" y1="42.48" x2="53.06" y2="36.88" xlink:href="#aa3c4f9e-e3c5-4660-8fc0-254d0ba02d7c"/><linearGradient id="fca875eb-378f-4a23-ae6d-b4581a9dac1b" x1="16.71" y1="44.78" x2="42.18" y2="39.07" xlink:href="#aa3c4f9e-e3c5-4660-8fc0-254d0ba02d7c"/><linearGradient id="eee032c8-81e3-4400-8abf-c4f6f66bcc02" x1="39.15" y1="22.23" x2="31.89" y2="36.08" xlink:href="#aa3c4f9e-e3c5-4660-8fc0-254d0ba02d7c"/><linearGradient id="e7ac9306-31a2-40ea-864f-2ea544fd4ea0" x1="34.85" y1="38.74" x2="57.93" y2="31.83" xlink:href="#aa3c4f9e-e3c5-4660-8fc0-254d0ba02d7c"/><linearGradient id="e573ee61-b67a-4be2-9b71-9114fa2d58d7" x1="13.01" y1="41.58" x2="44.48" y2="34.53" xlink:href="#aa3c4f9e-e3c5-4660-8fc0-254d0ba02d7c"/><linearGradient id="ae5420b1-357e-41fe-bcee-d22b10a497d8" x1="40.74" y1="13.72" x2="31.77" y2="30.83" xlink:href="#aa3c4f9e-e3c5-4660-8fc0-254d0ba02d7c"/><linearGradient id="ec750f4e-0811-4a96-8a05-9f00d1b8929f" x1="-557.79" y1="41.48" x2="-518.71" y2="29.77" gradientTransform="matrix(-1, 0, 0, 1, -508.49, 0)" xlink:href="#e1d22ebc-9d96-4152-af97-4a4440fbd355"/><linearGradient id="f2f7ab95-a7a9-4820-9d0f-6bd0c18eea12" x1="-566.24" y1="46.05" x2="-562.97" y2="45.31" gradientTransform="matrix(-1, 0, 0, 1, -508.49, 0)" xlink:href="#e1d22ebc-9d96-4152-af97-4a4440fbd355"/><linearGradient id="be619832-e0d1-4321-be21-61e5ddb36272" x1="-536.84" y1="4.64" x2="-556.7" y2="42.49" gradientTransform="matrix(-1, 0, 0, 1, -508.49, 0)" xlink:href="#e1d22ebc-9d96-4152-af97-4a4440fbd355"/><linearGradient id="bc70ca6e-d1e6-428b-9acb-e04005972b06" x1="-557.79" y1="46.91" x2="-518.71" y2="35.21" gradientTransform="matrix(-1, 0, 0, 1, -508.49, 0)" xlink:href="#e1d22ebc-9d96-4152-af97-4a4440fbd355"/><linearGradient id="a4d4c4fc-393d-47dc-9cc2-31aac2ec6c13" x1="-566.24" y1="51.48" x2="-562.97" y2="50.75" gradientTransform="matrix(-1, 0, 0, 1, -508.49, 0)" xlink:href="#e1d22ebc-9d96-4152-af97-4a4440fbd355"/><linearGradient id="a1d3e97d-4df2-41e4-b31c-bc257ae766b4" x1="-536.84" y1="10.07" x2="-556.7" y2="47.92" gradientTransform="matrix(-1, 0, 0, 1, -508.49, 0)" xlink:href="#e1d22ebc-9d96-4152-af97-4a4440fbd355"/><linearGradient id="b9ec6708-da94-48a8-acae-d6d075baa3da" x1="51.36" y1="65.97" x2="107.97" y2="49.02" xlink:href="#f0969a74-05a7-49c2-8eea-eac049b64ef1"/><linearGradient id="a24d130b-8477-4ff1-a51b-6d671ceb5d42" x1="22.32" y1="72.9" x2="78.89" y2="60.22" xlink:href="#f0969a74-05a7-49c2-8eea-eac049b64ef1"/><linearGradient id="fc86aef0-ed86-46ba-9f4a-fadf7f20daba" x1="63.66" y1="10.63" x2="53.8" y2="29.43" xlink:href="#f0969a74-05a7-49c2-8eea-eac049b64ef1"/><radialGradient id="bca493a3-3c2c-4e03-86e9-42f5f6348389" cx="51.96" cy="27.81" r="9.54" xlink:href="#b8726351-5145-4075-a11a-a62e008d1616"/></defs><g class="b4318ebd-71dc-429b-b690-d35afe2427c2"><g id="b001970c-3405-4056-b7a5-caf859d9118f" data-name="Layer 2"><g id="aa748d53-da56-40fa-9654-3b2037c55d92" data-name="Layer 1"><path class="b3eb1823-322c-44a4-adc8-2f55f739e6fc" d="M2.36,6.77Q2.23,39.05,2.1,71.33l9.28-5v-65Z"/><path class="b2f9fedf-953f-4668-b041-7bbd5f3df8eb" d="M2.37,6.77,2.1,71.33,0,72.72V5.41Z"/><polygon class="a82b88e8-dd11-4010-9271-fce03b8a464b" points="0.01 5.41 2.37 6.77 11.38 1.37 9 0 0.01 5.41"/><path class="a0671467-5689-4b12-a404-0de6a0ba335a" d="M12,18,9,19.74V9.39H7.17V20.83l-.66.39V34.13l.66-.39V67.68h0c0,.3.41.54.93.54S9,68,9,67.69H9v-35l3-1.72Z"/><path class="bfaf0cf2-4cb0-4e18-8ab1-b37b2c8469f5" d="M11.43,10.77H9.56V67.34h0c0,.3.42.55.94.55s.93-.25.93-.55h0Z"/><polygon class="b4cf49a7-fd18-48ee-b12e-85e50077ceb6" points="11.37 1.37 2.38 6.42 0 5.41 2.06 6.97 2.32 76.34 2.58 6.94 11.37 1.37"/><path id="pusher"  class="bc5c472d-623a-4aa6-81d4-925b8ac420c1" d="M38,43.05H27.34v9.3h0v0c0,.61,2.39,1.1,5.33,1.1S38,53,38,52.37v0h0Z"/><polygon class="ad21aa30-ae9d-4cee-8369-fcdee6384169" points="11.35 19.77 11.35 32.69 16.83 29.48 16.83 16.57 11.35 19.77"/><polygon class="ee3d18e1-b377-4fad-897c-623ce88e9bda" points="11.37 19.77 11.37 32.69 9.54 31.59 9.54 18.7 11.37 19.77"/><polygon class="b1bdd1b1-f1c8-4350-806a-a9667c8d11e3" points="9.54 18.7 11.37 19.77 16.83 16.57 14.96 15.47 9.54 18.7"/><polygon class="b7efe416-b341-4925-a659-301456eb17f7" points="50.68 29.75 50.68 35.11 55.35 32.42 55.35 27.07 50.68 29.75"/><polygon class="e7bc7d80-4dfc-4bf9-be1f-e29e495774ef" points="50.7 29.75 50.7 35.11 6 9.52 6 4.18 50.7 29.75"/><polygon class="ec197b64-9907-4218-8126-f2df728089a2" points="6 4.18 50.7 29.75 55.35 27.07 10.63 1.48 6 4.18"/><polygon class="b3c29102-2397-41bd-aa3a-757b599708e1" points="31.08 31.16 31.08 32.12 13.86 22.3 13.86 21.34 31.08 31.16"/><polygon class="aa01fab1-d19b-4b80-924f-09face4ad2a7" points="31.08 31.16 31.08 32.12 32.04 31.55 32.04 30.59 31.08 31.16"/><polygon class="b454b934-84fa-45d7-b751-ecac6bcc7521" points="32.04 30.59 31.08 31.16 13.86 21.34 14.83 20.77 32.04 30.59"/><polygon class="bb1fe1b8-9fe0-4a19-927f-10d28728df6d" points="31.08 36.6 31.08 37.56 13.86 27.74 13.86 26.77 31.08 36.6"/><polygon class="a926d3d2-991a-470a-979d-1f35c1f99011" points="31.08 36.6 31.08 37.56 32.04 36.98 32.04 36.02 31.08 36.6"/><polygon class="f866f864-d711-4678-a76e-705f21139306" points="32.04 36.02 31.08 36.6 13.86 26.77 14.83 26.2 32.04 36.02"/><polygon class="ef3dafdc-aebc-4ba3-982c-ae0921ec3cfa" points="32.56 38.97 32.56 48.94 39.04 45.13 39.04 35.17 32.56 38.97"/><polygon class="b4ebef51-a829-4c8a-ae89-51db9dd64e43" points="32.58 38.97 32.58 48.94 25.76 44.99 25.76 35.04 32.58 38.97"/><polygon class="f2442d67-99c8-4ba9-920d-145649cff55a" points="25.76 35.04 32.58 38.97 39.04 35.17 32.19 31.22 25.76 35.04"/><polygon class="e9ff7ef1-4873-448e-bb24-963b51e065e0" points="32.6 34.41 32.6 46.72 40.61 42.02 40.61 29.71 32.6 34.41"/><polygon class="e49f57e5-bee6-4295-a7f0-513e5002fb26" points="32.62 34.41 32.62 46.72 24.19 41.84 24.19 29.55 32.62 34.41"/><polygon class="b711eed2-2c2a-4cf9-80e5-6807f0a48874" points="24.19 29.55 32.62 34.41 40.61 29.71 32.14 24.83 24.19 29.55"/><polygon class="bd4c007d-d809-4d77-880b-8400921bb84d" points="55.67 45.49 55.67 46.45 36.99 35.68 36.99 34.72 55.67 45.49"/><polygon class="e2331740-5dd0-40bf-891c-86c46fb579ec" points="55.67 45.49 55.67 46.45 56.63 45.88 56.63 44.92 55.67 45.49"/><polygon class="b6f34a9c-1d78-4572-8585-52475d2748da" points="56.63 44.92 55.67 45.49 36.99 34.72 37.95 34.15 56.63 44.92"/><polygon class="f8d0b493-d690-4bc4-a787-4a9dea2d13c1" points="55.67 50.93 55.67 51.89 36.99 41.12 36.99 40.16 55.67 50.93"/><polygon class="a363c538-1415-48ae-b3a8-91baad9e4574" points="55.67 50.93 55.67 51.89 56.63 51.31 56.63 50.36 55.67 50.93"/><polygon class="f809022e-cdf8-428b-ba14-31f812de4379" points="56.63 50.36 55.67 50.93 36.99 40.16 37.95 39.58 56.63 50.36"/><polygon class="b20dbfc9-6400-45e2-8dba-6da35bebd298" points="51.16 31.48 51.16 103.28 60.18 97.88 60.18 26.08 51.16 31.48"/><polygon class="fbeb2a71-ea52-4e18-8ee1-f7cf929e2e73" points="51.17 31.48 51.17 103.28 48.81 101.91 48.81 30.13 51.17 31.48"/><polygon class="b743d369-90cb-4206-9219-5e639e0c833b" points="48.81 30.13 51.17 31.48 60.18 26.08 57.8 24.71 48.81 30.13"/><polygon class="f0ba7ba5-df34-462c-b7d5-fc1d0d4c2ade" points="60.18 26.08 51.2 31.13 48.81 30.13 50.88 31.68 51.14 101.05 51.4 31.65 60.18 26.08"/></g></g></g></svg>